<!--?xml version="1.0" standalone="no"?-->
              <svg id="sw-js-blob-svg" viewBox="0 0 100 100" xmlns="http://www.w3.org/2000/svg" version="1.1">
                    <defs> 
                        <linearGradient id="sw-gradient" x1="0" x2="1" y1="1" y2="0">
                            <stop id="stop1" stop-color="rgba(64, 61, 57, 1)" offset="0%"></stop>
                            <stop id="stop2" stop-color="rgba(64, 61, 57, 1)" offset="100%"></stop>
                        </linearGradient>
                    </defs>
                <path fill="url(#sw-gradient)" d="M20.5,-33.3C27.5,-31.4,34.8,-27.9,34,-22C33.1,-16.2,24.1,-8.1,21.7,-1.4C19.2,5.3,23.3,10.6,22.5,13.4C21.6,16.3,15.7,16.7,11.2,20C6.6,23.2,3.3,29.3,-1.5,31.9C-6.3,34.5,-12.6,33.6,-17.7,30.7C-22.9,27.7,-26.8,22.8,-30.4,17.3C-34,11.9,-37.1,5.9,-35.3,1.1C-33.4,-3.8,-26.6,-7.6,-21.7,-10.7C-16.8,-13.8,-13.8,-16.2,-10.5,-20.3C-7.2,-24.5,-3.6,-30.3,1.6,-33C6.7,-35.7,13.4,-35.3,20.5,-33.3Z" width="100%" height="100%" transform="translate(50 50)" style="transition: 0.3s;" stroke-width="0" stroke="url(#sw-gradient)"></path>
              </svg>