<svg xmlns="http://www.w3.org/2000/svg" x="0px" y="0px" viewBox="13.687251358032226 13.687999992370605 36.62574523925781 36.625749053955076" enable-background="new 0 0 64 64">
<g>
	<g>
	</g>
	
		<line fill="none" stroke="#3CFF00FF" stroke-width="0.94" stroke-linecap="round" stroke-linejoin="round" stroke-miterlimit="10" x1="29.858" y1="34.142" x2="34.705" y2="29.295"/>
</g>
<g>
	
		<path fill="#FFFFFF00" stroke="#000000FF" stroke-width="0.94" stroke-linecap="round" stroke-linejoin="round" stroke-miterlimit="10" d="   M26.958,31.243l5.8,5.8c1.601,1.601,1.601,4.198,0,5.8l-5.8,5.8c-1.601,1.601-4.198,1.601-5.8,0l-5.8-5.8   c-1.601-1.601-1.601-4.198,0-5.8l5.8-5.8C22.76,29.641,25.356,29.641,26.958,31.243z"/>
	
		<path fill="#FFFFFF00" stroke="#000000FF" stroke-width="0.94" stroke-linecap="round" stroke-linejoin="round" stroke-miterlimit="10" d="   M43.093,15.316l5.592,5.592c1.544,1.544,1.544,4.048,0,5.592l-5.592,5.592c-1.544,1.544-4.048,1.544-5.592,0l-5.592-5.592   c-1.544-1.544-1.544-4.048,0-5.592l5.592-5.592C39.045,13.772,41.549,13.772,43.093,15.316z"/>
</g>
<g>
	
		<line fill="none" stroke="#3CFF00FF" stroke-width="0.94" stroke-linecap="round" stroke-linejoin="round" stroke-miterlimit="10" x1="25.218" y1="38.782" x2="29.858" y2="34.142"/>
	
		<line fill="none" stroke="#3CFF00FF" stroke-width="0.94" stroke-linecap="round" stroke-linejoin="round" stroke-miterlimit="10" x1="34.705" y1="29.295" x2="39.137" y2="24.863"/>
</g>
</svg>