<?xml version="1.0" encoding="utf-8"?>
<!-- Generator: Adobe Illustrator 27.5.0, SVG Export Plug-In . SVG Version: 6.00 Build 0)  -->
<svg version="1.1" xmlns="http://www.w3.org/2000/svg" xmlns:xlink="http://www.w3.org/1999/xlink" x="0px" y="0px"
	 viewBox="0 0 600 500" style="enable-background:new 0 0 600 500;" xml:space="preserve">
<g id="BACKGROUND">
	<rect style="fill:#FFFFFF;" width="600" height="500"/>
</g>
<g id="OBJECTS">
	<g>
		<path style="fill:#DDE9EB;" d="M541.356,432.23c0.763-60.338-7.049-322.126-86.191-322.126
			c-74.47,0-85.145,165.07-164.029,166.049c-78.884,0.98-85.373-92.202-157.52-92.202c-62.672,0-85.154,196.629-89.978,248.279
			H541.356z"/>
		<g>
			
				<ellipse transform="matrix(0.9637 -0.2669 0.2669 0.9637 -79.124 28.9297)" style="fill:#6E9296;" cx="66.856" cy="305.522" rx="33.915" ry="33.915"/>
			
				<ellipse transform="matrix(0.7643 -0.6448 0.6448 0.7643 -181.2533 115.1136)" style="fill:#DDE9EB;" cx="66.856" cy="305.522" rx="28.545" ry="28.545"/>
			<g>
				<path style="fill:#6E9296;" d="M49.667,298.64l17.709,5.436l-1.592,0.344l18.507-16.764c0.266-0.241,0.677-0.22,0.917,0.045
					c0.23,0.254,0.22,0.641-0.012,0.885l-17.269,18.037l-0.012,0.013c-0.419,0.438-1.052,0.549-1.58,0.331l-17.107-7.107
					c-0.332-0.138-0.489-0.518-0.351-0.849C49.006,298.701,49.352,298.545,49.667,298.64z"/>
			</g>
			<g>
				<g>
					<path style="fill:#FFFFFF;" d="M68.522,281.344c0,0.92-0.746,1.666-1.666,1.666c-0.92,0-1.666-0.746-1.666-1.666
						c0-0.92,0.746-1.666,1.666-1.666C67.776,279.677,68.522,280.423,68.522,281.344z"/>
					<path style="fill:#FFFFFF;" d="M68.522,329.701c0,0.92-0.746,1.666-1.666,1.666c-0.92,0-1.666-0.746-1.666-1.666
						c0-0.92,0.746-1.666,1.666-1.666C67.776,328.035,68.522,328.781,68.522,329.701z"/>
				</g>
				<g>
					<path style="fill:#FFFFFF;" d="M56.209,283.75c0.46,0.797,0.187,1.816-0.61,2.276c-0.797,0.46-1.816,0.187-2.276-0.61
						c-0.46-0.797-0.187-1.816,0.61-2.276C54.73,282.68,55.749,282.953,56.209,283.75z"/>
					<path style="fill:#FFFFFF;" d="M80.388,325.629c0.46,0.797,0.187,1.816-0.61,2.276c-0.797,0.46-1.816,0.187-2.276-0.61
						c-0.46-0.797-0.187-1.816,0.61-2.276C78.909,324.559,79.928,324.832,80.388,325.629z"/>
				</g>
				<g>
					<path style="fill:#FFFFFF;" d="M46.749,291.99c0.797,0.46,1.07,1.479,0.61,2.276c-0.46,0.797-1.479,1.07-2.276,0.61
						c-0.797-0.46-1.07-1.479-0.61-2.276C44.933,291.803,45.952,291.53,46.749,291.99z"/>
					<path style="fill:#FFFFFF;" d="M88.628,316.169c0.797,0.46,1.07,1.479,0.61,2.276c-0.46,0.797-1.479,1.07-2.276,0.61
						c-0.797-0.46-1.07-1.479-0.61-2.276C86.812,315.982,87.831,315.708,88.628,316.169z"/>
				</g>
				<g>
					<path style="fill:#FFFFFF;" d="M42.677,303.856c0.92,0,1.666,0.746,1.666,1.666c0,0.92-0.746,1.666-1.666,1.666
						c-0.92,0-1.666-0.746-1.666-1.666C41.011,304.602,41.757,303.856,42.677,303.856z"/>
					<path style="fill:#FFFFFF;" d="M91.035,303.856c0.92,0,1.666,0.746,1.666,1.666c0,0.92-0.746,1.666-1.666,1.666
						s-1.666-0.746-1.666-1.666C89.368,304.602,90.114,303.856,91.035,303.856z"/>
				</g>
				<g>
					<path style="fill:#FFFFFF;" d="M45.083,316.169c0.797-0.46,1.816-0.187,2.276,0.61c0.46,0.797,0.187,1.816-0.61,2.276
						c-0.797,0.46-1.816,0.187-2.276-0.61C44.013,317.648,44.286,316.629,45.083,316.169z"/>
					<path style="fill:#FFFFFF;" d="M86.962,291.99c0.797-0.46,1.816-0.187,2.276,0.61c0.46,0.797,0.187,1.816-0.61,2.276
						c-0.797,0.46-1.816,0.187-2.276-0.61C85.892,293.469,86.165,292.45,86.962,291.99z"/>
				</g>
				<g>
					<path style="fill:#FFFFFF;" d="M53.323,325.629c0.46-0.797,1.479-1.07,2.276-0.61c0.797,0.46,1.07,1.479,0.61,2.276
						c-0.46,0.797-1.479,1.07-2.276,0.61C53.136,327.445,52.863,326.426,53.323,325.629z"/>
					<path style="fill:#FFFFFF;" d="M77.502,283.75c0.46-0.797,1.479-1.07,2.276-0.61c0.797,0.46,1.07,1.479,0.61,2.276
						c-0.46,0.797-1.479,1.07-2.276,0.61C77.315,285.566,77.042,284.547,77.502,283.75z"/>
				</g>
			</g>
		</g>
		<g>
			<circle style="fill:#4A75C9;" cx="510.845" cy="331.909" r="36.881"/>
			<path style="fill:#EBBC3B;" d="M510.845,331.909l-12.229,34.795c3.828,1.346,7.941,2.085,12.229,2.085
				c19.938,0,36.17-15.824,36.848-35.597L510.845,331.909z"/>
			<path style="fill:#28364F;" d="M547.467,336.222c0.165-1.416,0.259-2.853,0.259-4.313c0-3.329-0.449-6.553-1.276-9.62
				l-35.605,9.62L547.467,336.222z"/>
			<path style="fill:#A4CACF;" d="M552.96,330.941c-0.315-13.92-7.372-26.168-18.041-33.61l-24.073,34.577L552.96,330.941z"/>
			<path style="fill:#DE6767;" d="M498.647,366.714l12.198-34.806l-33.894,14.552C481.009,355.897,488.891,363.295,498.647,366.714z
				"/>
			<path style="fill:#28364F;" d="M501.642,296.186c-15.915,4.088-27.677,18.532-27.677,35.723c0,5.278,1.116,10.292,3.113,14.832
				l33.767-14.832L501.642,296.186z"/>
		</g>
		<g>
			<polygon style="fill:#28364F;" points="279.876,214.083 410.593,214.083 423.982,99.301 293.265,99.301 			"/>
			<polygon style="fill:#EBBC3B;" points="437.594,214.083 306.877,214.083 293.487,99.301 424.205,99.301 			"/>
			<polygon style="fill:#4A75C9;" points="426.694,120.641 295.977,120.641 293.487,99.301 424.205,99.301 			"/>
			<g>
				<path style="fill:#28364F;" d="M409.04,108.349c2.511-0.195,4.145-4.25,3.586-9.041c-0.573-4.911-3.268-9.059-5.887-9.059
					s-4.346,4.149-3.773,9.059c0,0,0,0,0,0h-1.896c0,0,0,0,0,0c-0.707-6.062,1.693-10.811,5.465-10.811
					c3.772,0,7.28,4.749,7.987,10.811c0.695,5.959-1.616,10.638-5.277,10.796L409.04,108.349z"/>
				<path style="fill:#28364F;" d="M394.773,108.349c2.511-0.195,4.145-4.25,3.586-9.041c-0.573-4.911-3.268-9.059-5.887-9.059
					c-2.618,0-4.346,4.149-3.773,9.059c0,0,0,0,0,0h-1.896c0,0,0,0,0,0c-0.707-6.062,1.693-10.811,5.465-10.811
					c3.772,0,7.28,4.749,7.987,10.811c0.695,5.959-1.616,10.638-5.277,10.796L394.773,108.349z"/>
				<path style="fill:#28364F;" d="M380.506,108.349c2.511-0.195,4.145-4.25,3.586-9.041c-0.573-4.911-3.268-9.059-5.887-9.059
					c-2.618,0-4.346,4.149-3.773,9.059c0,0,0,0,0,0h-1.896c0,0,0,0,0,0c-0.707-6.062,1.693-10.811,5.465-10.811
					c3.772,0,7.28,4.749,7.987,10.811c0.695,5.959-1.616,10.638-5.278,10.796L380.506,108.349z"/>
				<path style="fill:#28364F;" d="M366.238,108.349c2.511-0.195,4.145-4.25,3.586-9.041c-0.573-4.911-3.268-9.059-5.887-9.059
					c-2.618,0-4.346,4.149-3.773,9.059c0,0,0,0,0,0h-1.896c0,0,0,0,0,0c-0.707-6.062,1.693-10.811,5.465-10.811
					c3.772,0,7.28,4.749,7.987,10.811c0.695,5.959-1.616,10.638-5.278,10.796L366.238,108.349z"/>
				<path style="fill:#28364F;" d="M351.971,108.349c2.511-0.195,4.145-4.25,3.586-9.041c-0.573-4.911-3.268-9.059-5.887-9.059
					c-2.618,0-4.346,4.149-3.773,9.059c0,0,0,0,0,0h-1.896c0,0,0,0,0,0c-0.707-6.062,1.693-10.811,5.465-10.811
					s7.28,4.749,7.987,10.811c0.695,5.959-1.616,10.638-5.278,10.796L351.971,108.349z"/>
				<path style="fill:#28364F;" d="M337.704,108.349c2.511-0.195,4.145-4.25,3.586-9.041c-0.573-4.911-3.268-9.059-5.887-9.059
					c-2.618,0-4.346,4.149-3.773,9.059c0,0,0,0,0,0h-1.896c0,0,0,0,0,0c-0.707-6.062,1.693-10.811,5.465-10.811
					s7.28,4.749,7.987,10.811c0.695,5.959-1.616,10.638-5.277,10.796L337.704,108.349z"/>
				<path style="fill:#28364F;" d="M323.436,108.349c2.511-0.195,4.145-4.25,3.586-9.041c-0.573-4.911-3.268-9.059-5.887-9.059
					c-2.618,0-4.346,4.149-3.773,9.059c0,0,0,0,0,0h-1.896c0,0,0,0,0,0c-0.707-6.062,1.693-10.811,5.465-10.811
					c3.772,0,7.28,4.749,7.987,10.811c0.695,5.959-1.616,10.638-5.277,10.796L323.436,108.349z"/>
				<path style="fill:#28364F;" d="M309.169,108.349c2.511-0.195,4.145-4.25,3.586-9.041c-0.573-4.911-3.268-9.059-5.887-9.059
					c-2.618,0-4.346,4.149-3.773,9.059c0,0,0,0,0,0h-1.896c0,0,0,0,0,0c-0.707-6.062,1.693-10.811,5.465-10.811
					c3.772,0,7.28,4.749,7.987,10.811c0.695,5.959-1.616,10.638-5.278,10.796L309.169,108.349z"/>
			</g>
			<g>
				<polygon style="fill:none;stroke:#FFFFFF;stroke-width:1.035;stroke-miterlimit:10;" points="370.119,141.056 357.315,141.056 
					356.189,131.404 368.993,131.404 				"/>
				<polygon style="fill:#599E84;" points="387.18,141.056 374.375,141.056 373.249,131.404 386.054,131.404 				"/>
				<polygon style="fill:none;stroke:#FFFFFF;stroke-width:1.035;stroke-miterlimit:10;" points="404.241,141.056 391.436,141.056 
					390.31,131.404 403.115,131.404 				"/>
				<polygon style="fill:#FFFFFF;" points="421.301,141.056 408.497,141.056 407.371,131.404 420.176,131.404 				"/>
			</g>
			<g>
				<polygon style="fill:none;stroke:#FFFFFF;stroke-width:1.035;stroke-miterlimit:10;" points="320.609,155.39 307.804,155.39 
					306.679,145.738 319.483,145.738 				"/>
				<polygon style="fill:#599E84;" points="337.67,155.39 324.865,155.39 323.739,145.738 336.544,145.738 				"/>
				<polygon style="fill:#599E84;" points="354.731,155.39 341.926,155.39 340.8,145.738 353.605,145.738 				"/>
				<polygon style="fill:none;stroke:#FFFFFF;stroke-width:1.035;stroke-miterlimit:10;" points="371.791,155.39 358.987,155.39 
					357.861,145.738 370.665,145.738 				"/>
				<polygon style="fill:none;stroke:#FFFFFF;stroke-width:1.035;stroke-miterlimit:10;" points="388.852,155.39 376.047,155.39 
					374.921,145.738 387.726,145.738 				"/>
				<polygon style="fill:none;stroke:#FFFFFF;stroke-width:1.035;stroke-miterlimit:10;" points="405.913,155.39 393.108,155.39 
					391.982,145.738 404.787,145.738 				"/>
				<polygon style="fill:#FFFFFF;" points="422.973,155.39 410.169,155.39 409.043,145.738 421.848,145.738 				"/>
			</g>
			<g>
				<polygon style="fill:none;stroke:#FFFFFF;stroke-width:1.035;stroke-miterlimit:10;" points="322.281,169.724 309.477,169.724 
					308.351,160.072 321.155,160.072 				"/>
				<polygon style="fill:none;stroke:#FFFFFF;stroke-width:1.035;stroke-miterlimit:10;" points="339.342,169.724 326.537,169.724 
					325.411,160.072 338.216,160.072 				"/>
				<polygon style="fill:none;stroke:#FFFFFF;stroke-width:1.035;stroke-miterlimit:10;" points="356.403,169.724 343.598,169.724 
					342.472,160.072 355.277,160.072 				"/>
				<polygon style="fill:none;stroke:#FFFFFF;stroke-width:1.035;stroke-miterlimit:10;" points="373.463,169.724 360.659,169.724 
					359.533,160.072 372.337,160.072 				"/>
				<polygon style="fill:#599E84;" points="390.524,169.724 377.719,169.724 376.594,160.072 389.398,160.072 				"/>
				<polygon style="fill:none;stroke:#FFFFFF;stroke-width:1.035;stroke-miterlimit:10;" points="407.585,169.724 394.78,169.724 
					393.654,160.072 406.459,160.072 				"/>
				<polygon style="fill:#FFFFFF;" points="424.646,169.724 411.841,169.724 410.715,160.072 423.52,160.072 				"/>
			</g>
			<g>
				<polygon style="fill:none;stroke:#FFFFFF;stroke-width:1.035;stroke-miterlimit:10;" points="323.953,184.058 311.148,184.058 
					310.023,174.406 322.827,174.406 				"/>
				<polygon style="fill:none;stroke:#FFFFFF;stroke-width:1.035;stroke-miterlimit:10;" points="341.014,184.058 328.209,184.058 
					327.083,174.406 339.888,174.406 				"/>
				<polygon style="fill:#599E84;" points="358.075,184.058 345.27,184.058 344.144,174.406 356.949,174.406 				"/>
				<polygon style="fill:none;stroke:#FFFFFF;stroke-width:1.035;stroke-miterlimit:10;" points="375.135,184.058 362.331,184.058 
					361.205,174.406 374.01,174.406 				"/>
				<polygon style="fill:none;stroke:#FFFFFF;stroke-width:1.035;stroke-miterlimit:10;" points="392.196,184.058 379.391,184.058 
					378.266,174.406 391.07,174.406 				"/>
				<polygon style="fill:none;stroke:#FFFFFF;stroke-width:1.035;stroke-miterlimit:10;" points="409.257,184.058 396.452,184.058 
					395.326,174.406 408.131,174.406 				"/>
				<polygon style="fill:#FFFFFF;" points="426.318,184.058 413.513,184.058 412.387,174.406 425.192,174.406 				"/>
			</g>
			<g>
				<polygon style="fill:none;stroke:#FFFFFF;stroke-width:1.035;stroke-miterlimit:10;" points="325.625,198.392 312.821,198.392 
					311.695,188.74 324.499,188.74 				"/>
				<polygon style="fill:none;stroke:#FFFFFF;stroke-width:1.035;stroke-miterlimit:10;" points="342.686,198.392 329.881,198.392 
					328.755,188.74 341.56,188.74 				"/>
				<polygon style="fill:#599E84;" points="359.747,198.392 346.942,198.392 345.816,188.74 358.621,188.74 				"/>
				<polygon style="fill:none;stroke:#FFFFFF;stroke-width:1.035;stroke-miterlimit:10;" points="376.807,198.392 364.003,198.392 
					362.877,188.74 375.682,188.74 				"/>
				<polygon style="fill:none;stroke:#FFFFFF;stroke-width:1.035;stroke-miterlimit:10;" points="393.868,198.392 381.064,198.392 
					379.938,188.74 392.742,188.74 				"/>
			</g>
		</g>
		<path style="fill:#A4CACF;" d="M443.005,282.833v-18.015h-15.667c-0.801-2.991-1.979-5.821-3.499-8.44l11.08-11.08l-12.738-12.737
			l-11.08,11.08c-2.619-1.52-5.45-2.698-8.44-3.499v-15.667h-18.015v15.667c-2.99,0.801-5.821,1.979-8.44,3.499l-11.08-11.08
			l-12.738,12.737l11.08,11.08c-1.52,2.619-2.698,5.449-3.499,8.44h-15.667v18.015h15.667c0.801,2.991,1.979,5.821,3.499,8.44
			l-11.08,11.079l12.738,12.738l11.08-11.08c2.619,1.52,5.449,2.698,8.44,3.498v15.667h18.015v-15.667
			c2.99-0.801,5.821-1.979,8.44-3.498l11.08,11.08l12.738-12.738l-11.08-11.079c1.52-2.619,2.698-5.449,3.499-8.44H443.005z
			 M410.544,273.825c0,9.312-7.577,16.889-16.889,16.889c-9.312,0-16.889-7.577-16.889-16.889s7.577-16.889,16.889-16.889
			C402.966,256.936,410.544,264.513,410.544,273.825z"/>
		<g>
			<defs>
				<rect id="SVGID_1_" x="258.619" y="297.023" width="210.407" height="134.905"/>
			</defs>
			<clipPath id="SVGID_00000036249412394118061590000005177768778094064554_">
				<use xlink:href="#SVGID_1_"  style="overflow:visible;"/>
			</clipPath>
			<path style="clip-path:url(#SVGID_00000036249412394118061590000005177768778094064554_);fill:#EBBC3B;" d="M443.775,417.01
				v-28.289h-24.601c-1.258-4.696-3.107-9.141-5.494-13.253l17.398-17.398l-20.001-20.001l-17.398,17.398
				c-4.112-2.386-8.557-4.236-13.253-5.494v-24.601h-28.289v24.601c-4.696,1.258-9.141,3.107-13.253,5.494l-17.398-17.398
				l-20.001,20.001l17.398,17.398c-2.387,4.112-4.236,8.557-5.494,13.253h-24.601v28.289h24.601
				c1.258,4.696,3.107,9.141,5.494,13.253l-17.398,17.398l20.001,20.001l17.398-17.398c4.112,2.386,8.557,4.236,13.253,5.493v24.601
				h28.289v-24.601c4.696-1.258,9.141-3.107,13.253-5.493l17.398,17.398l20.001-20.001l-17.398-17.398
				c2.387-4.112,4.236-8.557,5.494-13.253H443.775z M392.802,402.866c0,14.622-11.898,26.521-26.521,26.521
				c-14.622,0-26.521-11.898-26.521-26.521c0-14.622,11.898-26.521,26.521-26.521C380.904,376.345,392.802,388.243,392.802,402.866z
				"/>
		</g>
		<g>
			<polygon style="fill:#4A75C9;" points="360.189,432.23 156.353,432.23 126.498,127.796 330.333,127.796 			"/>
			<polygon style="fill:#FFFFFF;" points="345.261,420.819 172.7,420.819 145.083,139.207 317.644,139.207 			"/>
			<g>
				<g>
					<path style="fill:#EBBC3B;" d="M244.869,137.748h-30.954l-2.668-27.202c-0.838-8.548,5.411-15.477,13.959-15.477l0,0
						c8.548,0,16.157,6.929,16.995,15.477L244.869,137.748z"/>
					<path style="fill:none;stroke:#FFFFFF;stroke-width:1.035;stroke-miterlimit:10;" d="M231.457,111.279
						c0.253,2.574-1.63,4.661-4.204,4.661s-4.865-2.087-5.118-4.661c-0.252-2.574,1.63-4.661,4.204-4.661
						C228.913,106.618,231.204,108.705,231.457,111.279z"/>
					<polygon style="fill:#1B2536;" points="211.822,116.409 243.351,122.271 244.489,133.879 213.535,133.879 					"/>
				</g>
				<path style="fill:#EBBC3B;" d="M256.941,151.29h-52.442c-7.898,0-14.928-6.402-15.702-14.3l-1.254-12.785h81.042l1.254,12.785
					C270.613,144.888,264.839,151.29,256.941,151.29z"/>
				
					<line style="fill:none;stroke:#FFFFFF;stroke-width:1.035;stroke-miterlimit:10;" x1="195.948" y1="133.879" x2="262.077" y2="133.879"/>
				
					<line style="fill:none;stroke:#FFFFFF;stroke-width:1.035;stroke-miterlimit:10;" x1="196.511" y1="139.624" x2="262.64" y2="139.624"/>
			</g>
			<g>
				<path style="fill:#6E9296;" d="M185.055,201.007h-17.744c-2.973,0-5.62-2.41-5.912-5.384l-1.74-17.743
					c-0.292-2.973,1.882-5.384,4.856-5.384h17.744c2.973,0,5.62,2.41,5.912,5.384l1.74,17.743
					C190.202,198.597,188.028,201.007,185.055,201.007z"/>
				<g>
					<path style="fill:none;stroke:#4A75C9;stroke-width:0.695;stroke-miterlimit:10;" d="M234.178,179.416h-36.06
						c-1.522,0-2.877-1.234-3.026-2.756l0,0c-0.149-1.522,0.964-2.756,2.485-2.756h36.06c1.522,0,2.877,1.234,3.026,2.756l0,0
						C236.812,178.182,235.699,179.416,234.178,179.416z"/>
					<path style="fill:none;stroke:#4A75C9;stroke-width:0.695;stroke-miterlimit:10;" d="M260.936,189.507h-61.828
						c-1.522,0-2.877-1.234-3.026-2.756l0,0c-0.149-1.522,0.964-2.756,2.486-2.756h61.828c1.522,0,2.877,1.234,3.026,2.756l0,0
						C263.57,188.273,262.458,189.507,260.936,189.507z"/>
					<path style="fill:none;stroke:#4A75C9;stroke-width:0.695;stroke-miterlimit:10;" d="M278.093,199.599h-77.996
						c-1.522,0-2.877-1.234-3.026-2.756l0,0c-0.149-1.522,0.964-2.756,2.485-2.756h77.996c1.522,0,2.877,1.234,3.026,2.756l0,0
						C280.728,198.365,279.615,199.599,278.093,199.599z"/>
				</g>
			</g>
			<g>
				<path style="fill:#D9956A;" d="M190.822,259.811h-17.744c-2.973,0-5.62-2.41-5.912-5.384l-1.74-17.744
					c-0.292-2.973,1.882-5.384,4.856-5.384h17.744c2.973,0,5.62,2.41,5.912,5.384l1.74,17.744
					C195.969,257.4,193.795,259.811,190.822,259.811z"/>
				<g>
					<path style="fill:none;stroke:#4A75C9;stroke-width:0.695;stroke-miterlimit:10;" d="M281.881,238.219h-77.996
						c-1.522,0-2.877-1.234-3.026-2.756l0,0c-0.149-1.522,0.964-2.756,2.485-2.756h77.996c1.522,0,2.877,1.234,3.026,2.756l0,0
						C284.515,236.986,283.403,238.219,281.881,238.219z"/>
					<path style="fill:none;stroke:#4A75C9;stroke-width:0.695;stroke-miterlimit:10;" d="M266.703,248.311h-61.829
						c-1.522,0-2.877-1.234-3.026-2.756l0,0c-0.149-1.522,0.964-2.756,2.486-2.756h61.828c1.522,0,2.877,1.234,3.026,2.756l0,0
						C269.337,247.077,268.224,248.311,266.703,248.311z"/>
					<path style="fill:none;stroke:#4A75C9;stroke-width:0.695;stroke-miterlimit:10;" d="M283.86,258.402h-77.996
						c-1.522,0-2.877-1.234-3.026-2.756l0,0c-0.149-1.522,0.964-2.756,2.485-2.756h77.996c1.522,0,2.877,1.234,3.026,2.756l0,0
						C286.495,257.169,285.382,258.402,283.86,258.402z"/>
				</g>
			</g>
			<g>
				<path style="fill:#6E9296;" d="M196.589,318.614h-17.744c-2.973,0-5.62-2.41-5.912-5.384l-1.74-17.744
					c-0.292-2.973,1.882-5.384,4.856-5.384h17.744c2.973,0,5.62,2.41,5.912,5.384l1.74,17.744
					C201.736,316.204,199.562,318.614,196.589,318.614z"/>
				<g>
					<path style="fill:none;stroke:#4A75C9;stroke-width:0.695;stroke-miterlimit:10;" d="M245.711,297.023h-36.06
						c-1.522,0-2.877-1.234-3.026-2.756l0,0c-0.149-1.522,0.964-2.756,2.485-2.756h36.06c1.522,0,2.877,1.234,3.026,2.756l0,0
						C248.346,295.789,247.233,297.023,245.711,297.023z"/>
					<path style="fill:none;stroke:#4A75C9;stroke-width:0.695;stroke-miterlimit:10;" d="M288.637,307.115h-77.996
						c-1.522,0-2.877-1.234-3.026-2.756l0,0c-0.149-1.522,0.963-2.756,2.485-2.756h77.996c1.522,0,2.877,1.234,3.026,2.756l0,0
						C291.272,305.881,290.159,307.115,288.637,307.115z"/>
					<path style="fill:none;stroke:#4A75C9;stroke-width:0.695;stroke-miterlimit:10;" d="M289.627,317.206H211.63
						c-1.522,0-2.877-1.234-3.026-2.756l0,0c-0.149-1.522,0.964-2.756,2.485-2.756h77.996c1.522,0,2.877,1.234,3.026,2.756l0,0
						C292.261,315.972,291.149,317.206,289.627,317.206z"/>
				</g>
			</g>
			<g>
				<path style="fill:#D9956A;" d="M202.355,377.418h-17.744c-2.973,0-5.62-2.41-5.912-5.384l-1.74-17.744
					c-0.292-2.973,1.882-5.384,4.856-5.384h17.744c2.973,0,5.62,2.41,5.912,5.384l1.74,17.744
					C207.503,375.008,205.328,377.418,202.355,377.418z"/>
				<g>
					<path style="fill:none;stroke:#4A75C9;stroke-width:0.695;stroke-miterlimit:10;" d="M293.414,355.827h-77.996
						c-1.522,0-2.877-1.234-3.026-2.756l0,0c-0.149-1.522,0.964-2.756,2.485-2.756h77.996c1.522,0,2.877,1.234,3.026,2.756l0,0
						C296.049,354.593,294.936,355.827,293.414,355.827z"/>
					<path style="fill:none;stroke:#4A75C9;stroke-width:0.695;stroke-miterlimit:10;" d="M278.236,365.918h-61.828
						c-1.522,0-2.877-1.234-3.026-2.756l0,0c-0.149-1.522,0.964-2.756,2.485-2.756h61.828c1.522,0,2.877,1.234,3.026,2.756l0,0
						C280.871,364.685,279.758,365.918,278.236,365.918z"/>
					<path style="fill:none;stroke:#4A75C9;stroke-width:0.695;stroke-miterlimit:10;" d="M295.393,376.01h-77.996
						c-1.522,0-2.877-1.234-3.026-2.756l0,0c-0.149-1.522,0.964-2.756,2.485-2.756h77.996c1.522,0,2.877,1.234,3.026,2.756l0,0
						C298.028,374.776,296.915,376.01,295.393,376.01z"/>
				</g>
			</g>
			
				<polyline style="fill:none;stroke:#599E84;stroke-width:3.9545;stroke-linecap:round;stroke-linejoin:round;stroke-miterlimit:10;" points="
				289.241,183.474 299.581,193.847 311.447,179.656 			"/>
			
				<polyline style="fill:none;stroke:#599E84;stroke-width:3.9545;stroke-linecap:round;stroke-linejoin:round;stroke-miterlimit:10;" points="
				300.775,301.081 311.114,311.454 322.98,297.263 			"/>
			
				<polyline style="fill:none;stroke:#599E84;stroke-width:3.9545;stroke-linecap:round;stroke-linejoin:round;stroke-miterlimit:10;" points="
				306.541,359.885 316.881,370.258 328.747,356.067 			"/>
			<g>
				
					<line style="fill:none;stroke:#D65353;stroke-width:3.9545;stroke-linecap:round;stroke-linejoin:round;stroke-miterlimit:10;" x1="298.132" y1="237.837" x2="316.459" y2="253.274"/>
				
					<line style="fill:none;stroke:#D65353;stroke-width:3.9545;stroke-linecap:round;stroke-linejoin:round;stroke-miterlimit:10;" x1="314.945" y1="237.837" x2="299.645" y2="253.274"/>
			</g>
		</g>
		<g>
			<path style="fill:#DE6767;" d="M457.617,401.01l-0.012,14.483c-0.001,1.033,0.172,2.054,0.522,3.025
				c0.877,2.433,2.53,7.905,2.332,14.134l-33.379-0.028c0,0,1.952-4.42,10.793-7.132c1.571-0.482,3.012-1.314,4.264-2.38
				l3.256-2.772c1.801-1.533,2.651-3.907,2.233-6.234L445.274,401L457.617,401.01z"/>
			<path style="fill:#1B2536;" d="M458.89,420.879l-8.094,3.856l-5.967-3.912l-2.691,2.29c-1.251,1.065-2.693,1.898-4.264,2.38
				c-8.841,2.712-10.793,7.132-10.793,7.132l33.379,0.028C460.608,427.982,459.715,423.736,458.89,420.879z"/>
			<path style="fill:#DE6767;" d="M484.564,401.033l2.896,16.25c0.145,0.811,0.157,1.64,0.036,2.455l-1.916,12.936l25.555,0.022
				c0,0-0.344-3.825-1.561-4.869c-1.216-1.044-4.691-3.655-4.691-3.655l-5.216-5.418c-1.174-1.22-1.879-2.817-1.989-4.507
				l-0.859-13.204L484.564,401.033z"/>
			<path style="fill:#1B2536;" d="M499.866,418.959c-5.721,0.288-8.845,4.441-8.845,4.441l-3.774-1.981l-1.667,11.255l25.555,0.022
				c0,0-0.344-3.825-1.56-4.869c-1.216-1.044-4.691-3.655-4.691-3.655L499.866,418.959z"/>
			<polygon style="fill:#D4B5A5;" points="444.898,228.5 455.86,216.775 469.16,216.699 476.582,228.527 470.27,267.733 
				445.517,267.712 			"/>
			<polyline style="fill:none;stroke:#FFFFFF;stroke-width:0.4636;stroke-miterlimit:10;" points="453.416,229.768 461.028,223.429 
				470.059,232.302 			"/>
			
				<line style="fill:none;stroke:#FFFFFF;stroke-width:0.4636;stroke-miterlimit:10;" x1="461.026" y1="226.428" x2="456.147" y2="263.974"/>
			<polygon style="fill:#415780;" points="483.181,287.684 503.685,402.875 480.216,402.855 456.117,299.569 463.265,404.144 
				439.535,404.124 432.948,282.73 443.757,267.913 477.808,268.811 			"/>
			<path style="fill:#28364F;" d="M483.181,287.684l-5.373-18.873l-34.051-0.898l-10.809,14.817l0.164,3.021
				c7.387,0.153,31.723,1.266,51.354,9.145L483.181,287.684z"/>
			<g>
				<polyline style="fill:none;stroke:#1B2536;stroke-width:0.4636;stroke-miterlimit:10;" points="456.117,299.569 
					453.612,289.638 455.381,270.276 				"/>
				
					<line style="fill:none;stroke:#1B2536;stroke-width:0.4636;stroke-miterlimit:10;" x1="446.018" y1="291.607" x2="468.36" y2="291.626"/>
				
					<line style="fill:none;stroke:#1B2536;stroke-width:0.4636;stroke-miterlimit:10;" x1="452.514" y1="270.273" x2="453.793" y2="287.659"/>
				
					<line style="fill:none;stroke:#1B2536;stroke-width:0.4636;stroke-miterlimit:10;" x1="440.684" y1="277.739" x2="446.836" y2="404.13"/>
				
					<line style="fill:none;stroke:#1B2536;stroke-width:0.4636;stroke-miterlimit:10;" x1="470.261" y1="277.764" x2="492.994" y2="402.866"/>
			</g>
			<rect x="443.126" y="266.194" style="fill:#1B2536;" width="32.631" height="5.203"/>
			<g>
				<path style="fill:#732727;" d="M460.255,185.421c5.351,0.947,9.528,4.346,11.596,9.919c1.041,2.804,1.234,5.673,3.71,7.435
					c2.476,1.762,2.865,4.305,2.668,5.739c-0.197,1.434,0.323,3.586,1.887,4.761l-36.312-0.031c0,0,2.024-3.062,1.635-5.67
					c-0.389-2.608-1.626-4.369-0.711-7.041c0.915-2.672,2.152-3.873,0.396-6.128C442.583,191.143,446.566,182.997,460.255,185.421z"
					/>
				<path style="fill:#DE6767;" d="M459.098,191.352c-0.001,1.13,0.95,7.563,6.163,10.088l0.388,3.608l3.511,11.651l-8.219,6.034
					l-5.08-5.958l0.004-5.259c-3.39,0.301-6.214-1.661-6.428-5.312c-0.214-3.651-0.037-6.819-1.079-8.776
					C448.358,197.428,453.66,197.345,459.098,191.352z"/>
				<path style="fill:#D65353;" d="M461.959,204.592c0,1.032-0.837,1.868-1.868,1.868c-1.032,0-1.868-0.837-1.868-1.868
					c0-1.032,0.837-1.868,1.868-1.868C461.122,202.723,461.959,203.56,461.959,204.592z"/>
				<path style="fill:none;stroke:#422424;stroke-width:0.4636;stroke-miterlimit:10;" d="M456.419,211.429
					c0,0,3.651-0.03,6.033-3.157"/>
				<path style="fill:#DE6767;" d="M468.872,202.347c-0.911,2.064-2.941,3.167-4.533,2.465c-1.592-0.703-2.144-2.946-1.232-5.01
					c0.911-2.064,2.941-3.167,4.533-2.464C469.232,198.04,469.784,200.283,468.872,202.347z"/>
				<path style="fill:none;stroke:#422424;stroke-width:0.4636;stroke-miterlimit:10;" d="M464.087,202.439
					c0,0,0.589-3.129,3.295-3.746"/>
				
					<line style="fill:none;stroke:#422424;stroke-width:0.4636;stroke-miterlimit:10;" x1="466.402" y1="201.268" x2="465.991" y2="199.33"/>
				<path style="fill:none;stroke:#FFFFFF;stroke-width:0.4636;stroke-miterlimit:10;" d="M468.638,204.399
					c-0.001,0.696-0.565,1.26-1.262,1.259c-0.696-0.001-1.26-0.565-1.259-1.262c0.001-0.696,0.565-1.26,1.261-1.259
					C468.074,203.138,468.638,203.703,468.638,204.399z"/>
				<g>
					<path style="fill:#1B2536;" d="M451.973,202.12l0.42-0.608c-0.21-0.218-0.507-0.346-0.828-0.295
						c-0.521,0.083-0.877,0.573-0.794,1.094c0.083,0.522,0.573,0.877,1.094,0.794c0.521-0.083,0.877-0.573,0.794-1.094
						c-0.006-0.038-0.029-0.068-0.039-0.105L451.973,202.12z"/>
					<path style="fill:#1B2536;" d="M457.875,201.183l0.42-0.608c-0.21-0.218-0.507-0.346-0.828-0.295
						c-0.521,0.083-0.877,0.573-0.794,1.094c0.083,0.522,0.573,0.877,1.094,0.794c0.522-0.083,0.877-0.573,0.794-1.094
						c-0.006-0.039-0.029-0.069-0.039-0.105L457.875,201.183z"/>
				</g>
				<path style="fill:none;stroke:#422424;stroke-width:0.4636;stroke-miterlimit:10;" d="M454.134,201.931
					c0,0,0.021,1.021-0.002,1.869c-0.022,0.848,0.977,1.305,2.064,0.588"/>
				<path style="fill:none;stroke:#422424;stroke-width:0.4636;stroke-miterlimit:10;" d="M454.457,206.038
					c0.956,0.283,3.325,0.416,4.826-1.648"/>
				
					<line style="fill:none;stroke:#422424;stroke-width:0.4636;stroke-miterlimit:10;" x1="458.572" y1="203.977" x2="459.673" y2="204.652"/>
				
					<path style="fill:none;stroke:#732727;stroke-width:0.9712;stroke-linecap:round;stroke-linejoin:round;stroke-miterlimit:10;" d="
					M455.658,198.412c0,0,2.369-0.78,4.02-0.192"/>
				
					<path style="fill:none;stroke:#732727;stroke-width:0.9712;stroke-linecap:round;stroke-linejoin:round;stroke-miterlimit:10;" d="
					M450.203,199.559c0,0,1.522-0.89,3.173-0.345"/>
			</g>
			<path style="fill:#415780;" d="M469.16,216.699l-7.993,49.008c-0.346,2.12-0.18,4.292,0.482,6.335l3.163,9.755
				c0.531,1.636,2.434,2.368,3.924,1.509l15.63-9.008l-6.771-10.306l8.97-31.625c1.268-4.471-1.053-9.177-5.373-10.892
				L469.16,216.699z"/>
			
				<line style="fill:none;stroke:#1B2536;stroke-width:0.4636;stroke-miterlimit:10;" x1="474.161" y1="264.468" x2="465.897" y2="271.402"/>
			<path style="fill:none;stroke:#1B2536;stroke-width:0.4636;stroke-miterlimit:10;" d="M470.337,218.506l0.753,1.155
				c2.351,3.608,2.513,8.22,0.42,11.984l-1.453,2.613l1.622,4.801c0.71,2.101,0.544,4.399-0.459,6.377l-8.814,17.37"/>
			<path style="fill:#1B2536;" d="M477.595,263.992l-10.465,19.652c0.537,0.052,1.095-0.043,1.607-0.338l15.63-9.008
				L477.595,263.992z"/>
			<polygon style="fill:#1B2536;" points="477.833,239.697 478.929,259.289 482.91,245.252 			"/>
			<polygon style="fill:#DE6767;" points="470.017,282.569 480.69,284.948 474.15,277.767 			"/>
			<path style="fill:#415780;" d="M455.86,216.775l-6.387,62.839c-0.181,1.777-1.678,3.129-3.465,3.128l-15.759-0.013
				c0,0,6.271-15.141,11.363-23.47l-0.127-4.553l-7.406,7.801c-2.922,3.078-7.683,3.485-11.086,0.949l0,0
				c-3.537-2.637-4.424-7.564-2.029-11.268l16-24.748c1.81-2.8,4.45-4.963,7.551-6.187L455.86,216.775z"/>
			<path style="fill:none;stroke:#1B2536;stroke-width:0.4636;stroke-miterlimit:10;" d="M455.012,217.752
				c-1.828,2.737-6.721,6.84-2.947,15.383c-3.917,6.907-4.708,16.224-1.849,27.638"/>
			
				<line style="fill:none;stroke:#1B2536;stroke-width:0.4636;stroke-miterlimit:10;" x1="433.486" y1="258.001" x2="434.922" y2="245.181"/>
			<polygon style="fill:#D9956A;" points="460.232,256.667 435.417,256.646 423.241,221.624 448.057,221.645 			"/>
			<path style="fill:#415780;" d="M476.356,238.74l11.37,20.089l-13.576,18.938l9.032,9.917l18.917-17.554
				c4.139-3.841,5.205-9.973,2.604-14.985l-12.64-24.357c-2.106-4.058-5.604-7.22-9.853-8.907l-4.603-1.827L476.356,238.74z"/>
			
				<line style="fill:none;stroke:#1B2536;stroke-width:0.4636;stroke-miterlimit:10;" x1="487.726" y1="258.829" x2="490.815" y2="254.746"/>
			<g>
				<path style="fill:#DE6767;" d="M424.515,240.902c0.053-0.249,1.729-2.28,3.262-3.355c0.892-0.625,1.906-1.173,2.598-1.522
					c0.486-0.245,1.073-0.139,1.447,0.256l1.244,1.311c0.38,0.401,0.448,1.005,0.166,1.481l-2.886,4.866
					c0,0,4.272-2.278,4.565-2.082c0.174,0.116-1.457,1.942-2.811,3.408c-1.129,1.221-2.941,1.556-4.408,0.772
					C425.908,245.081,423.98,243.436,424.515,240.902z"/>
				
					<line style="fill:none;stroke:#422424;stroke-width:0.4636;stroke-miterlimit:10;" x1="427.058" y1="240.415" x2="432.057" y2="236.528"/>
				
					<line style="fill:none;stroke:#422424;stroke-width:0.4636;stroke-miterlimit:10;" x1="428.849" y1="242.633" x2="432.986" y2="237.608"/>
			</g>
		</g>
		
			<line style="fill:none;stroke:#28364F;stroke-width:1.3993;stroke-miterlimit:10;" x1="35.139" y1="432.254" x2="559.605" y2="432.696"/>
		<g>
			<path style="fill:#1B2536;" d="M126.603,175.901c-0.683-2.17-3.275-3.288-5.79-2.496c-0.692,0.218-1.297,0.566-1.809,0.99
				c-1.271-1.646-3.474-2.415-5.574-1.754c-1.053,0.332-1.92,0.975-2.538,1.794c-1.303-1.319-3.278-1.882-5.168-1.287
				c-1.171,0.368-2.114,1.12-2.738,2.072c-0.831-0.273-1.748-0.306-2.646-0.023c-2.284,0.719-3.552,3.153-2.833,5.436
				c0.412,1.309,1.395,2.267,2.583,2.725l3.427,6.239l15.885-4.129l2.866-3.993c0.338-0.039,0.678-0.105,1.018-0.212
				C125.801,180.472,127.286,178.071,126.603,175.901z"/>
			<g>
				<path style="fill:#9E643E;" d="M176.467,222.151l7.215-8.562c0,0,0.348-4.737,2.608-7.302c2.26-2.564,4.433-3.651,4.868-3.477
					c0.435,0.174-2.651,5.172-2.651,5.172s2.912-0.348,4.607-1.695c1.695-1.347,5.085-4.955,6.128-4.433
					c1.043,0.521,1.956,6.258-2.347,11.039c0,0,1.304,0.036,2.521-0.917c1.217-0.952,1.956-1.822,2.434-1.343
					c0.478,0.478-1.391,3.26-2.608,3.998c-1.217,0.739-2.738,1.26-2.738,1.26s-2.488,2.782-7.307,3.52l-4.08,9.257L176.467,222.151z
					"/>
				<path style="fill:none;stroke:#422424;stroke-width:0.4636;stroke-miterlimit:10;" d="M193.257,209.189
					c0,0,4.04-2.934,6.061-6.487"/>
				<path style="fill:none;stroke:#422424;stroke-width:0.4636;stroke-miterlimit:10;" d="M194.949,211.047
					c0,0,2.771-3.097,4.563-5.476"/>
				<path style="fill:none;stroke:#422424;stroke-width:0.4636;stroke-miterlimit:10;" d="M192.407,208.309
					c0,0,2.347,2.249,3.423,4.401"/>
				<path style="fill:none;stroke:#422424;stroke-width:0.4636;stroke-miterlimit:10;" d="M186.409,215.237
					c0,0,3.586-3.245,8.084-2.528"/>
				<polygon style="fill:#28364F;" points="179.643,218.383 176.467,222.151 185.116,228.67 187.689,222.833 				"/>
			</g>
			<path style="fill:#546169;" d="M144.269,214.94l19.03,19.771l14.516-15.733l12.082,10.952c0,0-12.514,20.004-16.425,26.175
				c-3.911,6.172-14.258,8.42-22.342-0.185c-7.514-7.999-19.297-21.818-19.297-21.818l-3.947-26.634l1.617,0.183
				C135.123,208.287,140.346,210.865,144.269,214.94z"/>
			<polygon style="fill:#1B2536;" points="138.233,217.79 145.611,249.883 135.306,238.145 			"/>
			<path style="fill:#9E643E;" d="M111.492,404.56l-0.282,9.008c-0.093,2.978,1.582,5.728,4.271,7.012l7.705,3.679
				c2.169,1.036,3.939,2.755,5.038,4.893l0,0c0.698,1.358-0.276,2.976-1.804,2.986c-8.549,0.058-30.611,0.187-30.4-0.024
				c0.211-0.211,2.3-9.063,3.09-12.434c0.199-0.85,0.239-1.727,0.12-2.591l-1.732-12.529H111.492z"/>
			<path style="fill:#9E643E;" d="M175.286,404.56l1.707,9.008c0.564,2.978,2.847,5.728,5.819,7.012l8.517,3.679
				c2.398,1.036,4.547,2.755,6.118,4.893l0,0c0.907,1.235,0.036,2.978-1.496,2.988c-8.774,0.059-30.215,0.182-30.054-0.026
				c0.164-0.211,0.299-9.063,0.344-12.434c0.011-0.85-0.142-1.727-0.452-2.591l-4.498-12.529H175.286z"/>
			<polygon style="fill:#546169;" points="143.741,275.218 179.553,408.732 157.648,408.732 117.794,292.947 115.056,408.732 
				94.89,408.732 89.175,278.065 124.531,261.582 			"/>
			<polygon style="fill:#1B2536;" points="145.04,280.063 89.957,295.948 89.175,278.065 124.531,261.582 143.741,275.218 			"/>
			
				<line style="fill:none;stroke:#1B2536;stroke-width:0.5;stroke-miterlimit:10;" x1="120.793" y1="273.045" x2="163.038" y2="408.732"/>
			<path style="fill:#546169;" d="M123.247,272.575l1.24-3.976l1.589,4.337c1.128,3.08,4.06,5.128,7.34,5.128h12.998l-8.084-33.704
				l-0.097-26.571c-0.019-5.219-3.944-9.597-9.13-10.183l-11.666-1.319h-13.398l-7.404,1.639c-4.647,1.029-7.516,5.706-6.325,10.314
				l7.926,30.683c0,0-6.78,19.232-9.062,29.141h26.61C119.205,278.065,122.228,275.841,123.247,272.575z"/>
			<polygon style="fill:#1B2536;" points="100.626,228.67 97.119,244.598 94.277,233.596 			"/>
			
				<line style="fill:none;stroke:#1B2536;stroke-width:0.5;stroke-miterlimit:10;" x1="94.277" y1="278.065" x2="99.41" y2="408.732"/>
			
				<line style="fill:none;stroke:#1B2536;stroke-width:0.4636;stroke-miterlimit:10;" x1="163.298" y1="234.712" x2="156.345" y2="241.579"/>
			<path style="fill:#1B2536;" d="M89.175,278.065h11.626l-5.871-19.407C92.869,264.903,90.387,272.8,89.175,278.065z"/>
			<path style="fill:none;stroke:#1B2536;stroke-width:0.4636;stroke-miterlimit:10;" d="M126.024,245.441l2.638,4.98
				c0.692,1.307,0.825,2.839,0.366,4.246l-4.192,12.859"/>
			<path style="fill:none;stroke:#FFFFFF;stroke-width:0.4636;stroke-miterlimit:10;" d="M125.661,252.053
				c0,0.696-0.564,1.26-1.26,1.26c-0.696,0-1.26-0.564-1.26-1.26c0-0.696,0.564-1.26,1.26-1.26
				C125.096,250.792,125.661,251.357,125.661,252.053z"/>
			<g>
				
					<rect x="99.278" y="287.095" transform="matrix(0.6621 0.7495 -0.7495 0.6621 264.0378 19.0623)" style="fill:#FFFFFF;" width="23.209" height="30.423"/>
				
					<rect x="100.669" y="288.331" transform="matrix(0.6621 0.7495 -0.7495 0.6621 264.0375 19.0621)" style="fill:#6E9296;" width="20.426" height="27.951"/>
				<g>
					<path style="fill:#EBBC3B;" d="M123.746,292.958l0.721-0.637c0.564-0.498,0.746-1.345,0.345-1.982
						c-0.511-0.811-1.597-0.943-2.284-0.336l-0.782,0.691l-1.493-1.69l-1.075,0.95c-0.58,0.512-0.635,1.397-0.122,1.977l3.13,3.543
						c0.512,0.58,1.397,0.635,1.977,0.122l1.075-0.95L123.746,292.958z"/>
					<polygon style="fill:#28364F;" points="122.039,291.001 123.759,292.947 124.284,292.483 					"/>
					<path style="fill:#28364F;" d="M123.886,291.388c-0.177,0.156-0.446,0.139-0.603-0.037c-0.156-0.177-0.139-0.446,0.037-0.603
						c0.177-0.156,0.447-0.139,0.603,0.037C124.08,290.963,124.063,291.232,123.886,291.388z"/>
				</g>
			</g>
			<polygon style="fill:#28364F;" points="106.881,302.339 103.543,298.249 101.581,296.896 109.814,289.622 113.969,294.846 
				114.889,298.575 112.33,296.804 107.686,296.309 			"/>
			<path style="fill:#1B2536;" d="M128.224,429.152L128.224,429.152c-1.099-2.138-2.868-3.857-5.038-4.893l-7.705-3.679
				c-1.08-0.516-1.986-1.276-2.69-2.185h-3.706c-2.271,0-4.112,1.841-4.112,4.112v0.567l-3.129-4.679h-2.555
				c-0.02,0.432-0.08,0.862-0.179,1.285c-0.79,3.371-2.879,12.223-3.09,12.434c-0.21,0.21,21.851,0.081,30.4,0.024
				C127.948,432.128,128.922,430.511,128.224,429.152z"/>
			<path style="fill:#1B2536;" d="M195.951,432.141c1.533-0.01,2.404-1.754,1.496-2.988l0,0c-1.571-2.138-3.72-3.857-6.118-4.893
				l-8.517-3.679c-1.194-0.516-2.268-1.276-3.173-2.185h-3.706c-2.271,0-3.706,1.841-3.204,4.112l0.125,0.567l-4.162-4.679h-2.555
				c0.075,0.432,0.111,0.862,0.105,1.285c-0.045,3.371-0.18,12.223-0.344,12.434C165.736,432.322,187.177,432.199,195.951,432.141z"
				/>
			<path style="fill:#9E643E;" d="M105.103,187.034c0,0,2.651-2.347,2.434-5.476c0,0,4.129,0.608,5.476-1.739
				c1.825,1.565,4.39,1.391,5.867,0.435c1.087,0.956,1.912,1,1.912,1v6.563c0,0,2.086,3.173,1.087,5.911
				c-1,2.738-3.564,3.694-3.564,3.694l0.826,7.128h-14.038l0.391-14.603L105.103,187.034z"/>
			<g>
				<path style="fill:#1B2536;" d="M112.037,185.018c-0.572,0-1.035,0.463-1.035,1.035c0,0.105,0.031,0.201,0.06,0.297l0.755-0.191
					l-0.527,0.603c0.189,0.199,0.452,0.326,0.747,0.326c0.572,0,1.035-0.463,1.035-1.035
					C113.073,185.482,112.609,185.018,112.037,185.018z"/>
				<path style="fill:#1B2536;" d="M118.471,185.018c-0.571,0-1.035,0.463-1.035,1.035c0,0.105,0.031,0.201,0.06,0.297l0.755-0.191
					l-0.527,0.603c0.189,0.199,0.451,0.326,0.747,0.326c0.572,0,1.035-0.463,1.035-1.035
					C119.506,185.482,119.043,185.018,118.471,185.018z"/>
			</g>
			<path style="fill:none;stroke:#422424;stroke-width:0.4636;stroke-miterlimit:10;" d="M115.99,185.1v1.268
				c0,0.487,0.136,0.964,0.393,1.377l0.446,0.717c0.199,0.321,0.004,0.741-0.369,0.796l-1.273,0.188"/>
			<path style="fill:none;stroke:#422424;stroke-width:0.7284;stroke-miterlimit:10;" d="M110.46,183.242c0,0,1.803-0.717,3.167,0"
				/>
			<path style="fill:none;stroke:#422424;stroke-width:0.7284;stroke-miterlimit:10;" d="M116.583,183.242c0,0,1.803-0.717,3.167,0"
				/>
			<path style="fill:#422424;" d="M117.436,190.413h-4.364c0,0,0.647,4.107,2.114,4.009
				C116.653,194.325,117.436,190.413,117.436,190.413z"/>
			<path style="fill:#943232;" d="M114.904,192.184c-0.476,0-0.937,0.036-1.38,0.098c0.343,1.07,0.887,2.192,1.662,2.141
				c0.734-0.049,1.296-1.052,1.675-2.042C116.249,192.256,115.592,192.184,114.904,192.184z"/>
			<path style="fill:none;stroke:#422424;stroke-width:0.4636;stroke-miterlimit:10;" d="M117.436,197.715
				c-2.641,0.848-7.27,0.196-9.226-2.575"/>
			<path style="fill:#4A75C9;" d="M104.746,202.289h14.952c0.664,0,1.226,0.492,1.314,1.15l0.564,4.239l2.955,34.943l-21.437-34.704
				l0.331-4.403C103.477,202.824,104.053,202.289,104.746,202.289z"/>
			<path style="fill:none;stroke:#1B2536;stroke-width:0.4636;stroke-miterlimit:10;" d="M104.495,207.592c0,0,9.388,1.695,15.972,0
				"/>
			<g>
				<path style="fill:#9E643E;" d="M100.274,283.216l2.782,3.564c0,0,5.563,1.738,7.519,2.695c1.956,0.956,3.607,5.085,3.607,5.085
					s1.434,3.781,0.913,4.042c-0.521,0.261-1.999-2.651-1.999-2.651l-2.564-2.26l0.652,4.928c0,0,0.325,4.037-0.087,4.199
					c-0.826,0.326-1.326,0-1.326,0s-0.608,0.338-1.217,0.039c-1,0.222-1.152-0.039-1.673-0.517c-0.522-0.478-2.303-4.52-2.303-4.52
					l-2.434-2.521c0,0-4.781-0.913-5.215-3.52l-2.651-3.346L100.274,283.216z"/>
				<path style="fill:none;stroke:#422424;stroke-width:0.4636;stroke-miterlimit:10;" d="M108.413,294.19
					c0,0,1.369,3.618,1.402,8.116"/>
				<path style="fill:none;stroke:#422424;stroke-width:0.4636;stroke-miterlimit:10;" d="M106.392,296.309
					c0,0,1.793,3.553,2.021,5.998"/>
				<polygon style="fill:#28364F;" points="101.371,284.621 96.066,290.69 94.277,288.432 100.274,283.216 				"/>
			</g>
			<path style="fill:#546169;" d="M94.948,208.299l4.461-0.987l1.782,20.62l-14.994,28.337l16.776,26.686l-10.257,7.736
				c0,0-21.26-19.789-25.382-28.424c-4.35-9.111,9.852-34.563,16.974-46.338C86.663,212.035,90.507,209.282,94.948,208.299z"/>
			
				<line style="fill:none;stroke:#1B2536;stroke-width:0.4636;stroke-miterlimit:10;" x1="81.417" y1="248.663" x2="86.197" y2="256.269"/>
			<path style="fill:none;stroke:#1B2536;stroke-width:0.4636;stroke-miterlimit:10;" d="M123.748,207.968l4.041,3.144
				c0.904,0.704,1.269,1.9,0.911,2.988l-2.177,6.617l4.37,3.703c0.832,0.706,1.161,1.841,0.834,2.882l-5.703,18.138l-19.717-15.16
				c-1.047-0.805-1.362-2.247-0.745-3.415l2.649-5.019l-8.442-6.192c-1.298-0.952-1.486-2.819-0.403-4.01l2.999-3.299"/>
			<polygon style="fill:#1B2536;" points="121.632,208.345 122.151,238.769 124.531,242.622 			"/>
			<circle style="fill:#9E643E;" cx="103.093" cy="188.783" r="3.683"/>
			<path style="fill:none;stroke:#422424;stroke-width:0.4636;stroke-miterlimit:10;" d="M101.192,187.686
				c1.173-1.521,4.643,0.288,4.65,1.912"/>
			
				<line style="fill:none;stroke:#422424;stroke-width:0.4636;stroke-miterlimit:10;" x1="102.148" y1="189.251" x2="103.517" y2="187.29"/>
		</g>
		<g>
			
				<line style="fill:none;stroke:#EBBC3B;stroke-width:2;stroke-linecap:round;stroke-linejoin:round;stroke-miterlimit:10;" x1="76.065" y1="184.189" x2="76.065" y2="199.238"/>
			
				<line style="fill:none;stroke:#EBBC3B;stroke-width:2;stroke-linecap:round;stroke-linejoin:round;stroke-miterlimit:10;" x1="83.589" y1="191.713" x2="68.54" y2="191.713"/>
		</g>
		<g>
			
				<line style="fill:none;stroke:#EBBC3B;stroke-width:2;stroke-linecap:round;stroke-linejoin:round;stroke-miterlimit:10;" x1="269.201" y1="100.987" x2="269.201" y2="116.036"/>
			
				<line style="fill:none;stroke:#EBBC3B;stroke-width:2;stroke-linecap:round;stroke-linejoin:round;stroke-miterlimit:10;" x1="276.726" y1="108.512" x2="261.677" y2="108.512"/>
		</g>
		<g>
			
				<line style="fill:none;stroke:#EBBC3B;stroke-width:2;stroke-linecap:round;stroke-linejoin:round;stroke-miterlimit:10;" x1="523.155" y1="392.997" x2="523.155" y2="408.046"/>
			
				<line style="fill:none;stroke:#EBBC3B;stroke-width:2;stroke-linecap:round;stroke-linejoin:round;stroke-miterlimit:10;" x1="530.679" y1="400.522" x2="515.63" y2="400.522"/>
		</g>
		<g>
			<g>
				<ellipse style="fill:#A4CACF;" cx="492.994" cy="158.958" rx="33.377" ry="25.079"/>
				<polygon style="fill:#A4CACF;" points="482.91,177.615 481.628,198.412 503.685,177.615 				"/>
			</g>
			<g>
				
					<line style="fill:none;stroke:#FFFFFF;stroke-width:0.9712;stroke-miterlimit:10;" x1="480.476" y1="147.022" x2="505.512" y2="147.022"/>
				
					<line style="fill:none;stroke:#FFFFFF;stroke-width:0.9712;stroke-miterlimit:10;" x1="480.476" y1="153.694" x2="505.512" y2="153.694"/>
				
					<line style="fill:none;stroke:#FFFFFF;stroke-width:0.9712;stroke-miterlimit:10;" x1="480.476" y1="160.367" x2="505.512" y2="160.367"/>
				
					<line style="fill:none;stroke:#FFFFFF;stroke-width:0.9712;stroke-miterlimit:10;" x1="480.476" y1="167.04" x2="505.512" y2="167.04"/>
			</g>
		</g>
		<g>
			<path style="fill:#EBBC3B;" d="M154.647,148.186H72.402c-4.544,0-8.228-3.684-8.228-8.228V93.621
				c0-4.544,3.684-8.228,8.228-8.228h82.245c4.544,0,8.228,3.684,8.228,8.228v46.336
				C162.875,144.502,159.191,148.186,154.647,148.186z"/>
			<polygon style="fill:#EBBC3B;" points="104.205,146.285 122.844,146.285 113.524,166.498 			"/>
			<g>
				<path style="fill:none;stroke:#FFFFFF;stroke-width:1.9425;stroke-miterlimit:10;" d="M73.552,121.776
					c0,0,2.366-0.01,7.606-4.987c5.24-4.976,9.127-4.612,14.197-1.881c5.07,2.732,13.183,2.963,17.747-1.979
					c4.563-4.941,10.141-10.587,16.564-7.855c6.423,2.732,14.535,4.253,23.831-8.195"/>
				<g>
					
						<line style="fill:none;stroke:#4A75C9;stroke-width:0.695;stroke-miterlimit:10;" x1="77.467" y1="119.875" x2="77.467" y2="135.669"/>
					
						<line style="fill:none;stroke:#4A75C9;stroke-width:0.695;stroke-miterlimit:10;" x1="89.835" y1="112.976" x2="89.835" y2="135.669"/>
					
						<line style="fill:none;stroke:#4A75C9;stroke-width:0.695;stroke-miterlimit:10;" x1="102.203" y1="116.789" x2="102.203" y2="135.669"/>
					
						<line style="fill:none;stroke:#4A75C9;stroke-width:0.695;stroke-miterlimit:10;" x1="114.571" y1="111.364" x2="114.571" y2="135.669"/>
					
						<line style="fill:none;stroke:#4A75C9;stroke-width:0.695;stroke-miterlimit:10;" x1="126.939" y1="104.371" x2="126.939" y2="135.669"/>
					
						<line style="fill:none;stroke:#4A75C9;stroke-width:0.695;stroke-miterlimit:10;" x1="139.307" y1="106.862" x2="139.307" y2="135.669"/>
					
						<line style="fill:none;stroke:#4A75C9;stroke-width:0.695;stroke-miterlimit:10;" x1="151.676" y1="98.891" x2="151.676" y2="135.669"/>
				</g>
				
					<line style="fill:none;stroke:#4A75C9;stroke-width:0.695;stroke-miterlimit:10;" x1="70.775" y1="135.669" x2="156.274" y2="135.669"/>
				<path style="fill:#4A75C9;" d="M153.326,98.891c0,0.911-0.739,1.65-1.65,1.65c-0.911,0-1.65-0.739-1.65-1.65
					c0-0.911,0.739-1.65,1.65-1.65C152.587,97.24,153.326,97.979,153.326,98.891z"/>
				<path style="fill:#4A75C9;" d="M140.958,106.862c0,0.911-0.739,1.65-1.65,1.65c-0.911,0-1.65-0.739-1.65-1.65
					c0-0.912,0.739-1.65,1.65-1.65C140.219,105.211,140.958,105.95,140.958,106.862z"/>
				<path style="fill:#4A75C9;" d="M128.59,104.371c0,0.911-0.739,1.65-1.65,1.65c-0.911,0-1.65-0.739-1.65-1.65
					c0-0.911,0.739-1.65,1.65-1.65C127.851,102.721,128.59,103.46,128.59,104.371z"/>
				<path style="fill:#4A75C9;" d="M116.222,111.364c0,0.911-0.739,1.65-1.65,1.65c-0.911,0-1.65-0.739-1.65-1.65
					c0-0.911,0.739-1.65,1.65-1.65C115.483,109.713,116.222,110.452,116.222,111.364z"/>
				<path style="fill:#4A75C9;" d="M103.854,116.789c0,0.911-0.739,1.65-1.65,1.65c-0.911,0-1.65-0.739-1.65-1.65
					c0-0.911,0.739-1.65,1.65-1.65C103.115,115.139,103.854,115.878,103.854,116.789z"/>
				<path style="fill:#4A75C9;" d="M91.486,113.014c0,0.911-0.739,1.65-1.65,1.65s-1.65-0.739-1.65-1.65
					c0-0.911,0.739-1.65,1.65-1.65S91.486,112.103,91.486,113.014z"/>
				<path style="fill:#4A75C9;" d="M79.118,119.875c0,0.911-0.739,1.65-1.65,1.65c-0.911,0-1.65-0.739-1.65-1.65
					c0-0.911,0.739-1.65,1.65-1.65C78.379,118.225,79.118,118.964,79.118,119.875z"/>
			</g>
		</g>
	</g>
</g>
</svg>
