<?xml version="1.0" encoding="utf-8"?>
<!-- Generator: Adobe Illustrator 27.5.0, SVG Export Plug-In . SVG Version: 6.00 Build 0)  -->
<svg version="1.1" xmlns="http://www.w3.org/2000/svg" xmlns:xlink="http://www.w3.org/1999/xlink" x="0px" y="0px"
	 viewBox="0 0 3710 3710" style="enable-background:new 0 0 3710 3710;" xml:space="preserve">
<g id="Background">
	<g>
		<g>
			<rect style="fill:#FFFFFF;" width="3710" height="3710"/>
		</g>
	</g>
</g>
<g id="Illustration">
	<g>
		<linearGradient id="SVGID_1_" gradientUnits="userSpaceOnUse" x1="457.7425" y1="1855.5591" x2="3252.2576" y2="1855.5591">
			<stop  offset="0" style="stop-color:#DAE3FE"/>
			<stop  offset="1" style="stop-color:#E9EFFD"/>
		</linearGradient>
		<path style="fill:url(#SVGID_1_);" d="M2916.034,2855.236c-72.739,74.977-137.823,119.051-187.653,152.323
			c-485.989,324.499-1041.527,230.971-1213.286,199.003c-277.112-51.576-511.032-87.961-712.011-269.538
			c-456.686-412.598-434.474-1273.307-85.51-1806.48c41.377-63.219,389.812-579.709,946.553-652.486
			c13.617-1.78,23.777-2.794,32.676-3.736c86.126-9.119,619.836-57.246,1055.022,307.353
			c62.295,52.19,162.545,146.329,255.51,289.905C3347.256,1596.561,3348.333,2409.64,2916.034,2855.236z"/>
		<g>
			<path style="fill:#BDD0FB;" d="M660.673,599.436c-4.5-13.889,11.695-25.302,23.398-16.573
				c118.843,88.633,411.172,361.274,406.861,896.297c-5.409,671.266,159.974,897.181,348.403,1025.033
				c0,0-243.647-42.5-419.849-270.786C586.869,1672.912,740.683,846.387,660.673,599.436z"/>
			<path style="fill:#FFFFFF;" d="M765.898,796.945c21.812,72.181,42.189,144.753,59.883,217.967
				c18.076,73.107,33.927,146.73,47.461,220.741c13.249,74.056,25.106,148.35,33.79,223.037
				c9.019,74.644,14.822,149.592,20.386,224.861c5.98,75.195,11.577,150.98,24.95,226.423
				c13.276,75.297,35.753,150.219,71.253,218.813c8.868,17.093,18.083,34.091,28.207,50.376c9.827,16.48,20.385,32.53,31.227,48.383
				c21.846,31.607,45.828,61.818,71.942,90.112c52.38,56.464,113.318,104.906,178.863,144.317
				c6.899,4.148,15.853,1.918,20.002-4.981c4.073-6.773,1.996-15.531-4.613-19.772l-0.047-0.03
				c-15.671-10.037-31.208-20.24-46.236-31.102c-7.603-5.312-14.953-10.949-22.407-16.446c-7.236-5.772-14.7-11.266-21.75-17.256
				c-28.598-23.476-55.514-48.932-80.413-76.252c-50.014-54.336-92.165-116.427-126.195-181.896
				c-16.65-32.937-30.844-67.043-42.365-102.124c-11.495-35.093-20.311-71.123-27.078-107.683
				c-13.546-73.162-19.705-148.127-26.225-223.274c-6.619-75.156-13.788-150.634-24.05-225.699
				c-5.029-37.542-10.733-74.989-17.104-112.315c-3.078-18.68-6.517-37.298-9.922-55.919c-3.584-18.588-7.27-37.154-11.107-55.686
				c-15.484-74.103-33.222-147.698-53.26-220.629c-20.387-72.835-42.701-145.105-67.761-216.393
				c-0.717-2.038-2.948-3.109-4.986-2.392C766.366,792.821,765.301,794.957,765.898,796.945z"/>
		</g>
		<g>
			<g>
				<path style="fill:#91B3FA;" d="M1245.323,2893.954c-4.666,26.493-34.873,39.611-57.607,25.23
					c-125.443-79.348-459.828-335.768-520.365-844.589c-51.12-429.677-119.672-657.807-157.969-759.214
					c-8.098-21.443,15.886-40.761,35.136-28.318C756.902,1424.342,1414.402,1933.96,1245.323,2893.954z"/>
				<path style="fill:#BDD0FB;" d="M1209.48,2900.439c-0.484,0.459-1.017,0.876-1.602,1.247c-4.895,3.111-11.386,1.665-14.497-3.23
					c-3.527-5.55-353.806-561.77-451.874-1155.996c-0.942-5.719,2.93-11.124,8.654-12.074c5.724-0.943,11.128,2.93,12.075,8.654
					c97.353,589.901,445.37,1142.636,448.873,1148.149C1213.85,2891.501,1213.054,2897.05,1209.48,2900.439z"/>
			</g>
		</g>
		<g>
			
				<linearGradient id="SVGID_00000040535648003873504510000008799179169504520617_" gradientUnits="userSpaceOnUse" x1="1214.8358" y1="2720.8481" x2="2786.9885" y2="205.4052" gradientTransform="matrix(1.0557 -2.000000e-04 -2.000000e-04 1 -29.6206 0.3764)">
				<stop  offset="0" style="stop-color:#09005D"/>
				<stop  offset="1" style="stop-color:#1A0F91"/>
			</linearGradient>
			<path style="fill:url(#SVGID_00000040535648003873504510000008799179169504520617_);" d="M2642.713,3176.049l-1481.051,6.373
				c-121.836,0.524-221.846-86.469-225.458-196.125c-16.044-487.032-55.986-1908.645-50.39-2372.357
				c0.961-79.7,71.51-144.565,159.979-147.245c344.03-10.422,1171.336-28.503,1555.683,23.583
				c80.939,10.968,141.692,72.189,144.625,145.85c16.256,408.06,68.856,1931.949,59.29,2395.462
				C2803.743,3111.53,2731.506,3175.667,2642.713,3176.049z"/>
			
				<linearGradient id="SVGID_00000003809787158968208830000005695163312242160014_" gradientUnits="userSpaceOnUse" x1="2524.3323" y1="647.5385" x2="-541.2059" y2="5540.6074" gradientTransform="matrix(1.0557 -3.000000e-04 -3.000000e-04 0.9824 -29.5327 56.0699)">
				<stop  offset="0" style="stop-color:#FE7062"/>
				<stop  offset="1" style="stop-color:#FF928E"/>
			</linearGradient>
			<path style="fill:url(#SVGID_00000003809787158968208830000005695163312242160014_);" d="M2584.902,3056.349l-1377.557,5.927
				c-69.642,0.3-126.6-49.089-127.907-110.908l-44.301-2223.708c-1.296-61.289,54.031-111.77,123.073-112.295l1365.232-10.05
				c49.367-0.376,89.968,34.369,91.357,78.183l67.971,2283.046C2684.324,3015.547,2640.117,3056.112,2584.902,3056.349z"/>
			
				<ellipse transform="matrix(0.2298 -0.9732 0.9732 0.2298 858.3107 2184.6226)" style="fill:#FFFFFF;" cx="1809.349" cy="550.05" rx="30.34" ry="30.34"/>
		</g>
		<circle style="fill:#FFFFFF;" cx="2768.209" cy="1836.295" r="375.087"/>
		<g>
			<path style="fill:#91B3FA;" d="M3130.871,2323.985H1282.458c-51.495,0-93.24-41.745-93.24-93.24V1067.764
				c0-51.495,41.745-93.24,93.24-93.24h1848.412c51.495,0,93.24,41.745,93.24,93.24v1162.981
				C3224.11,2282.24,3182.365,2323.985,3130.871,2323.985z"/>
			<path style="opacity:0.52;fill:#FFFFFF;" d="M1232.327,2043.51c-2.788,0-5.05-2.262-5.05-5.05v-924.552
				c0-56.316,45.818-102.134,102.138-102.134h451.86c2.788,0,5.05,2.262,5.05,5.05s-2.262,5.05-5.05,5.05h-451.86
				c-50.75,0-92.037,41.287-92.037,92.034v924.552C1237.377,2041.248,1235.115,2043.51,1232.327,2043.51z"/>
			<path style="opacity:0.52;fill:#FFFFFF;" d="M3080.5,2283.962h-494.071c-2.788,0-5.051-2.262-5.051-5.05
				c0-2.788,2.262-5.05,5.051-5.05H3080.5c50.75,0,92.037-41.287,92.037-92.037v-203.499c0-2.788,2.262-5.05,5.05-5.05
				s5.05,2.262,5.05,5.05v203.499C3182.638,2238.145,3136.82,2283.962,3080.5,2283.962z"/>
			<path style="opacity:0.52;fill:#FFFFFF;" d="M3177.587,1882.744c-2.788,0-5.05-2.262-5.05-5.05v-70.895
				c0-2.788,2.262-5.05,5.05-5.05s5.05,2.262,5.05,5.05v70.895C3182.638,1880.482,3180.375,1882.744,3177.587,1882.744z"/>
			<path style="opacity:0.52;fill:#FFFFFF;" d="M2147.011,1021.873H1916.82c-2.788,0-5.05-2.262-5.05-5.05s2.262-5.05,5.05-5.05
				h230.191c2.788,0,5.051,2.262,5.051,5.05S2149.8,1021.873,2147.011,1021.873z"/>
			<g>
				<path style="opacity:0.52;fill:#FFFFFF;" d="M2262.537,1161.825h-967.422c-4.418,0-8-3.582-8-8v-42.761c0-4.418,3.582-8,8-8
					h967.422c4.418,0,8,3.582,8,8v42.761C2270.537,1158.243,2266.955,1161.825,2262.537,1161.825z"/>
				<path style="opacity:0.52;fill:#FFFFFF;" d="M2264.986,1262.208h-967.422c-4.418,0-8-3.582-8-8v-42.761c0-4.418,3.582-8,8-8
					h967.422c4.418,0,8,3.582,8,8v42.761C2272.986,1258.626,2269.404,1262.208,2264.986,1262.208z"/>
				<path style="opacity:0.52;fill:#FFFFFF;" d="M2262.537,1372.213h-967.422c-4.418,0-8-3.582-8-8v-42.761c0-4.418,3.582-8,8-8
					h967.422c4.418,0,8,3.582,8,8v42.761C2270.537,1368.632,2266.955,1372.213,2262.537,1372.213z"/>
				<path style="opacity:0.52;fill:#FFFFFF;" d="M2262.537,1481.627h-967.422c-4.418,0-8-3.582-8-8v-42.761c0-4.418,3.582-8,8-8
					h967.422c4.418,0,8,3.582,8,8v42.761C2270.537,1478.045,2266.955,1481.627,2262.537,1481.627z"/>
				<path style="opacity:0.52;fill:#FFFFFF;" d="M3118.461,2132.294h-949.782c-4.418,0-8-3.582-8-8v-42.761c0-4.418,3.582-8,8-8
					h949.782c4.418,0,8,3.582,8,8v42.761C3126.461,2128.713,3122.88,2132.294,3118.461,2132.294z"/>
				<path style="opacity:0.52;fill:#FFFFFF;" d="M3116.057,2242.3h-949.782c-4.418,0-8-3.582-8-8v-42.761c0-4.418,3.582-8,8-8
					h949.782c4.418,0,8,3.582,8,8v42.761C3124.057,2238.718,3120.475,2242.3,3116.057,2242.3z"/>
				<path style="opacity:0.52;fill:#FFFFFF;" d="M1515.819,1863.649c52.386,2.608,60.152-47.418,111.54-52.803
					c86.787-9.092,107.972,130.145,191.049,126.791c67.502-2.725,84.441-96.639,150.917-87.06
					c49.237,7.096,58.91,61.693,106.74,68.865c9.532,1.429,18.906,0.686,28.042-1.685v263.917c0,32.954-18.757,59.653-41.869,59.599
					l-766.087-1.787l-8.777-508.306c44.838,4.917,77.493,21.213,100.841,37.781
					C1444.24,1808.714,1462.791,1861.008,1515.819,1863.649z"/>
				<circle style="opacity:0.52;fill:#FFFFFF;" cx="2720.089" cy="1647.894" r="390.563"/>
				<path style="opacity:0.71;fill:#FFFFFF;" d="M2720.09,1667.078l-71.939-403.111
					c-181.334,33.768-318.624,192.803-318.624,383.927c0,9.802,0.371,19.516,1.081,29.136L2720.09,1667.078z"/>
			</g>
		</g>
		<g>
			
				<linearGradient id="SVGID_00000031907456433163507550000016875431578145822127_" gradientUnits="userSpaceOnUse" x1="-905.7535" y1="1373.2433" x2="-792.2901" y2="1657.8638" gradientTransform="matrix(1 0 0 1 3644.803 0)">
				<stop  offset="0" style="stop-color:#09005D"/>
				<stop  offset="1" style="stop-color:#1A0F91"/>
			</linearGradient>
			<path style="fill:url(#SVGID_00000031907456433163507550000016875431578145822127_);" d="M2806.327,1526.346
				c0,0,38.251,18.606,45.284,39.979c5.643,17.149,47.939,19.36,52.117,53.088c2.157,17.414,15.043,31.36,32.388,34.018
				c43.198,6.621,109.77,29.053,120.422,104.054c8.13,57.248-21.054,78.955-51.682,86.469c-22.495,5.518-37.445,27.399-32.894,50.11
				c4.364,21.783-2.144,46.966-39.882,66.879c-84.568,44.624-169.023-105.717-169.023-105.717l-17.308-262.505L2806.327,1526.346z"
				/>
			
				<linearGradient id="SVGID_00000081611993652513306360000010566400189178427321_" gradientUnits="userSpaceOnUse" x1="-1260.1993" y1="1471.2389" x2="-1050.5853" y2="1948.1578" gradientTransform="matrix(0.9776 -0.2106 0.2106 0.9776 3394.3831 -113.5247)">
				<stop  offset="0" style="stop-color:#FF928E"/>
				<stop  offset="1" style="stop-color:#FEB3B1"/>
			</linearGradient>
			<path style="fill:url(#SVGID_00000081611993652513306360000010566400189178427321_);" d="M2346.166,1464.114
				c0,0,168.852,267.077,369.637,318.663c0,0-39.123,111.432-69.321,124.185c0,0-247.022-206.112-310.503-404.897L2346.166,1464.114
				z"/>
			
				<linearGradient id="SVGID_00000057863977015384103370000002965239392790576532_" gradientUnits="userSpaceOnUse" x1="-490.9801" y1="3195.4131" x2="-394.7675" y2="3195.4131" gradientTransform="matrix(1 0 0 1 3644.803 0)">
				<stop  offset="0" style="stop-color:#4042E2"/>
				<stop  offset="1" style="stop-color:#4F52FF"/>
			</linearGradient>
			<path style="fill:url(#SVGID_00000057863977015384103370000002965239392790576532_);" d="M3153.938,3172.338l5.473,44.988
				c1.038,8.535,7.758,15.283,16.3,16.259c14.422,1.647,37.566,3.336,60.21,0.942c9.939-1.051,16.392-11.115,13.364-20.64
				c-5.52-17.367-15.619-43.438-30.179-58.78h-49.906C3159.972,3155.108,3152.823,3163.179,3153.938,3172.338z"/>
			
				<linearGradient id="SVGID_00000021838697555023638140000003967673642504410290_" gradientUnits="userSpaceOnUse" x1="-897.5278" y1="3574.8225" x2="-759.0709" y2="1956.6072" gradientTransform="matrix(1 0 0 1 3644.803 0)">
				<stop  offset="0" style="stop-color:#FF928E"/>
				<stop  offset="1" style="stop-color:#FEB3B1"/>
			</linearGradient>
			<path style="fill:url(#SVGID_00000021838697555023638140000003967673642504410290_);" d="M2763.056,2645.329l-8.423,49.55
				c0,0,28.208,285.725,33.226,400.015c0.787,17.918-3.849,35.626-13.254,50.898l-49.049,79.651l124.657-73.559l2.482-15.212
				l-20.406-28.058l26.729-320.083c1.57-18.803-2.31-37.661-11.176-54.317l-25.785-48.439L2763.056,2645.329z"/>
			
				<linearGradient id="SVGID_00000079486239779719304080000016706018389094761115_" gradientUnits="userSpaceOnUse" x1="-937.9753" y1="3177.8469" x2="-782.296" y2="3177.8469" gradientTransform="matrix(1 0 0 1 3644.803 0)">
				<stop  offset="0" style="stop-color:#4042E2"/>
				<stop  offset="1" style="stop-color:#4F52FF"/>
			</linearGradient>
			<path style="fill:url(#SVGID_00000079486239779719304080000016706018389094761115_);" d="M2717.347,3236.983h39.781
				c7.446,0,14.468-3.418,19.01-9.32c12.401-16.114,38.095-47.553,50.382-48.374c16.539-1.105,14.423,57.693,14.423,57.693h9.271
				l11.743-73.063c2.955-18.384-6.188-36.595-22.695-45.208c0,0-3.781,27.96-24.281,40.328
				c-20.5,12.368-83.423,56.658-83.423,56.658s-7.707-1.099-16.168,0.43C2702.838,3218.396,2704.592,3236.983,2717.347,3236.983z"/>
			
				<linearGradient id="SVGID_00000082345708344282858300000000316477753050387599_" gradientUnits="userSpaceOnUse" x1="-619.0132" y1="3598.9006" x2="-480.52" y2="1980.26" gradientTransform="matrix(1 0 0 1 3644.803 0)">
				<stop  offset="0" style="stop-color:#FF928E"/>
				<stop  offset="1" style="stop-color:#FEB3B1"/>
			</linearGradient>
			<path style="fill:url(#SVGID_00000082345708344282858300000000316477753050387599_);" d="M2933.797,2668.864
				c0,0,165.252,313.467,191.521,385.036c26.269,71.57,35.471,131.275,35.823,136.928c0.551,8.835,11.539,17.308,41.828,17.308
				c15.631,0,23.287-6.266,27.035-12.331c3.198-5.174,3.363-11.649,0.668-17.103c-9.559-19.345-39.894-81.169-51.129-109.209
				c-13.414-33.479-42.268-185.198-58.092-237.949c-15.824-52.751-33.711-109.973-102.623-162.681
				C3018.828,2668.864,2971.523,2622.531,2933.797,2668.864z"/>
			
				<linearGradient id="SVGID_00000153668873415917555100000001032207893642420654_" gradientUnits="userSpaceOnUse" x1="-894.1074" y1="1942.9521" x2="-824.8759" y2="2585.2712" gradientTransform="matrix(1 0 0 1 3644.803 0)">
				<stop  offset="0" style="stop-color:#4042E2"/>
				<stop  offset="1" style="stop-color:#4F52FF"/>
			</linearGradient>
			<path style="fill:url(#SVGID_00000153668873415917555100000001032207893642420654_);" d="M2829.404,2155.232
				c-42.627-180.63,65.361-282.792,65.361-282.792c-68.138-65.405-192.286-95.167-192.286-95.167s-118.464,86.608-104.41,154.397
				c8.237,39.732,83.269,237.985,83.269,237.985S2750.718,2202.491,2829.404,2155.232z"/>
			
				<linearGradient id="SVGID_00000096739104647528444760000003401592439447305627_" gradientUnits="userSpaceOnUse" x1="2892.5842" y1="2340.6499" x2="3279.7749" y2="1556.1676">
				<stop  offset="0" style="stop-color:#4042E2"/>
				<stop  offset="1" style="stop-color:#4F52FF"/>
			</linearGradient>
			<path style="fill:url(#SVGID_00000096739104647528444760000003401592439447305627_);" d="M2923.915,2244.657
				c-17.348-52.262-94.511-89.425-94.511-89.425c-78.686,47.259-148.067,14.423-148.067,14.423s-15.56,59.474-4.82,114.744
				c10.739,55.271,78.116,410.479,78.116,410.479c106.164,21.511,269.442-21.642,269.442-21.642
				C2956.453,2553.178,2941.263,2296.919,2923.915,2244.657z"/>
			
				<linearGradient id="SVGID_00000110447036093309538500000001053480680529802408_" gradientUnits="userSpaceOnUse" x1="-912.7119" y1="1979.7467" x2="-886.7032" y2="1789.4736" gradientTransform="matrix(1 0 0 1 3644.803 0)">
				<stop  offset="0" style="stop-color:#FF928E"/>
				<stop  offset="1" style="stop-color:#FEB3B1"/>
			</linearGradient>
			<path style="fill:url(#SVGID_00000110447036093309538500000001053480680529802408_);" d="M2779.924,1657.907l34.657,155.672
				c3.318,13.712-9.182,11.468-23.045,8.854c-22.703-4.28-51.964-13.096-61.746-30.761c-0.996-1.798-1.493-3.83-1.774-5.866
				l-14.889-107.947c-1.181-8.564,3.448-16.876,11.352-20.38l28.732-12.74C2764.274,1639.833,2777.078,1646.145,2779.924,1657.907z"
				/>
			
				<linearGradient id="SVGID_00000036957579026072868490000002383777618317625995_" gradientUnits="userSpaceOnUse" x1="-805.5175" y1="2072.468" x2="-632.7441" y2="2072.468" gradientTransform="matrix(1 0 0 1 3644.803 0)">
				<stop  offset="0" style="stop-color:#FF928E"/>
				<stop  offset="1" style="stop-color:#FEB3B1"/>
			</linearGradient>
			<path style="fill:url(#SVGID_00000036957579026072868490000002383777618317625995_);" d="M2894.765,1872.44
				c0,0,241.89,173.059,30.936,354.909c0,0-8.044,9.1-23.868,13.83c-7.989,2.388-31.621,20.268-43.603,29.59
				c-3.852,2.997-9.417,1.977-12.007-2.16c-2.029-3.241-2.268-7.293-0.633-10.75l29.946-63.324c8.316-7.761,21.045-8.312,30-1.298
				c5.713,4.474,14.082,2.6,17.28-3.913c16.307-33.214,47.1-130.897-78.933-241.276c-4.738-4.149-5.937-11.012-3.029-16.599
				C2849.71,1914.439,2869.962,1880.659,2894.765,1872.44z"/>
			<g>
				
					<linearGradient id="SVGID_00000017502694540608210160000011937126974417330579_" gradientUnits="userSpaceOnUse" x1="-1075.5049" y1="1672.8235" x2="-848.5683" y2="1268.9528" gradientTransform="matrix(0.9809 -0.1943 0.1943 0.9809 3415.7129 -99.2406)">
					<stop  offset="0" style="stop-color:#FF928E"/>
					<stop  offset="1" style="stop-color:#FEB3B1"/>
				</linearGradient>
				<path style="fill:url(#SVGID_00000017502694540608210160000011937126974417330579_);" d="M2713.542,1515.995
					c0,0-36.896,24.976-52.751,88.58s9.911,86.419,36.321,85.021s64.704-9.565,97.883-55.195
					C2828.174,1588.77,2761.892,1485.476,2713.542,1515.995z"/>
				
					<linearGradient id="SVGID_00000176765455719087250000000004654165800655694015_" gradientUnits="userSpaceOnUse" x1="-1026.7001" y1="1321.1165" x2="-913.2321" y2="1605.7487" gradientTransform="matrix(0.9809 -0.1943 0.1943 0.9809 3415.7129 -99.2406)">
					<stop  offset="0" style="stop-color:#09005D"/>
					<stop  offset="1" style="stop-color:#1A0F91"/>
				</linearGradient>
				<path style="fill:url(#SVGID_00000176765455719087250000000004654165800655694015_);" d="M2761.537,1608.746
					c0,0,13.519-91.139-62.15-77.199l-15.3,15.929c0,0-37.037-41.711,3.95-73.241c40.987-31.53,97.865-23.455,129.333,33.945
					c31.468,57.401,42.888,97.735,16.513,133.404c-26.375,35.668-46.215,5.077-46.215,5.077s12.096-30.871,2.059-44.118
					c-10.037-13.247-22.986,7.704-22.986,7.704L2761.537,1608.746z"/>
				
					<linearGradient id="SVGID_00000160190970055926742760000017779003851161155003_" gradientUnits="userSpaceOnUse" x1="-1027.1995" y1="1699.9698" x2="-800.2632" y2="1296.0994" gradientTransform="matrix(0.9809 -0.1943 0.1943 0.9809 3415.7129 -99.2406)">
					<stop  offset="0" style="stop-color:#FF928E"/>
					<stop  offset="1" style="stop-color:#FEB3B1"/>
				</linearGradient>
				<path style="fill:url(#SVGID_00000160190970055926742760000017779003851161155003_);" d="M2771.878,1616.551
					c0,0,6.675-46.89,30.622-33.486c23.948,13.404-8.631,43.802-21.693,54.145L2771.878,1616.551z"/>
			</g>
			<g>
				
					<linearGradient id="SVGID_00000110430564724353174680000008751227034682266815_" gradientUnits="userSpaceOnUse" x1="-1301.6229" y1="1489.4457" x2="-1092.0089" y2="1966.3649" gradientTransform="matrix(0.9776 -0.2106 0.2106 0.9776 3394.3831 -113.5247)">
					<stop  offset="0" style="stop-color:#FF928E"/>
					<stop  offset="1" style="stop-color:#FEB3B1"/>
				</linearGradient>
				<path style="fill:url(#SVGID_00000110430564724353174680000008751227034682266815_);" d="M2347.326,1519.097
					c-0.511,5.509,19.976,9.317,26.496-14.17c-1.792-10.197-4.976-54.85-12.794-61.787c-41.64-36.947-115.893-78.51-115.893-78.51
					c-8.304,12.679,2.587,21.029,2.587,21.029l37.065,25.014c-3.866,12.806-9.509,24.128-10.147,38.749
					c-0.483,11.072,3.607,21.911,10.956,30.31c7.376,8.429,17.307,19.311,26.258,27.574
					C2328.797,1522.943,2347.326,1519.097,2347.326,1519.097z"/>
				
					<linearGradient id="SVGID_00000039121154353304414410000013847373699776263846_" gradientUnits="userSpaceOnUse" x1="128.0533" y1="1462.7554" x2="184.4964" y2="1462.7554" gradientTransform="matrix(-1 0 0 1 2479.3696 0)">
					<stop  offset="0" style="stop-color:#FF928E"/>
					<stop  offset="1" style="stop-color:#FEB3B1"/>
				</linearGradient>
				<path style="fill:url(#SVGID_00000039121154353304414410000013847373699776263846_);" d="M2327.192,1500.894l5.665-2.331
					c-0.753-1.833-18.54-45.056-27.143-54.047c-3.27-3.411-4.848-6.333-4.702-8.687c0.073-1.275,0.704-2.533,1.902-3.816
					l29.991,16.04l13.248,20.741l5.163-3.302l-14.105-22.093l-35.13-18.783l-1.586,1.291c-3.553,2.905-5.39,6.025-5.6,9.545
					c-0.259,4.192,1.829,8.542,6.385,13.304C2307.762,1455.527,2322.183,1488.686,2327.192,1500.894z"/>
			</g>
		</g>
		<g>
			
				<linearGradient id="SVGID_00000086685341538208876730000004258396386407985796_" gradientUnits="userSpaceOnUse" x1="1092.8019" y1="3315.3572" x2="1099.3223" y2="3149.084" gradientTransform="matrix(1 0 0 1 618.4032 0)">
				<stop  offset="0" style="stop-color:#4042E2"/>
				<stop  offset="1" style="stop-color:#4F52FF"/>
			</linearGradient>
			<path style="fill:url(#SVGID_00000086685341538208876730000004258396386407985796_);" d="M1616.58,3134.704
				c0,0-6.339,35.893-9.448,71.424c-1.215,13.886,9.491,25.943,23.418,26.523c47.316,1.971,148.527,5.804,184.845,4.183
				c5.461-0.244,9.029-5.833,7.008-10.911c-1.693-4.255-4.958-7.695-9.119-9.607l-167.182-76.837L1616.58,3134.704z"/>
			
				<linearGradient id="SVGID_00000111879699785899155870000015911879488336917424_" gradientUnits="userSpaceOnUse" x1="992.9837" y1="3134.5564" x2="1047.3632" y2="3134.5564" gradientTransform="matrix(1 0 0 1 618.4032 0)">
				<stop  offset="0" style="stop-color:#FF928E"/>
				<stop  offset="1" style="stop-color:#FEB3B1"/>
			</linearGradient>
			<path style="fill:url(#SVGID_00000111879699785899155870000015911879488336917424_);" d="M1611.387,3113.614l5.093,42.933
				c0,0,29.287,13.633,49.286-1.718l-12.128-47.844L1611.387,3113.614z"/>
			
				<linearGradient id="SVGID_00000057858950435433274110000016003758174360179353_" gradientUnits="userSpaceOnUse" x1="1720.8265" y1="2219.0388" x2="1463.2725" y2="3107.8555">
				<stop  offset="0" style="stop-color:#09005D"/>
				<stop  offset="1" style="stop-color:#1A0F91"/>
			</linearGradient>
			<path style="fill:url(#SVGID_00000057858950435433274110000016003758174360179353_);" d="M1615.215,2306.457
				c-2.2,11.212-11.81,559.492,46.796,805.197c0.957,4.009-1.076,8.142-4.892,9.701c-8.989,3.672-26.612,8.991-47.731,9.7
				c-6.54,0.22-12.405-4.031-14.249-10.309c-16.753-57.007-97.029-342.628-107.5-615.474c-11.701-304.877,0-10.381,0-10.381
				l6.863-188.457L1615.215,2306.457z"/>
			
				<linearGradient id="SVGID_00000115499334046845018610000006238669265736671389_" gradientUnits="userSpaceOnUse" x1="826.1586" y1="3304.9014" x2="832.679" y2="3138.627" gradientTransform="matrix(1 0 0 1 618.4032 0)">
				<stop  offset="0" style="stop-color:#4042E2"/>
				<stop  offset="1" style="stop-color:#4F52FF"/>
			</linearGradient>
			<path style="fill:url(#SVGID_00000115499334046845018610000006238669265736671389_);" d="M1424.266,3153.43
				c0,0-10.092,18.121-19.864,66.27c-1.764,8.695,4.312,17.018,13.142,17.886c15.624,1.535,39.676,3.511,58.943,3.379
				c8.882-0.061,15.813-7.795,14.742-16.612c-2.133-17.576-8.782-46.41-29.321-68.884L1424.266,3153.43z"/>
			
				<linearGradient id="SVGID_00000080922054767801355250000017149064524408126853_" gradientUnits="userSpaceOnUse" x1="796.9982" y1="3131.7671" x2="843.9507" y2="3131.7671" gradientTransform="matrix(1 0 0 1 618.4032 0)">
				<stop  offset="0" style="stop-color:#FF928E"/>
				<stop  offset="1" style="stop-color:#FEB3B1"/>
			</linearGradient>
			<path style="fill:url(#SVGID_00000080922054767801355250000017149064524408126853_);" d="M1415.401,3098.208l11.902,64.927
				c0,0,11.769,8.753,35.05,2.408l-5.681-69.858L1415.401,3098.208z"/>
			
				<linearGradient id="SVGID_00000117670823870075568980000010396717783560941192_" gradientUnits="userSpaceOnUse" x1="1583.7384" y1="2179.3142" x2="1326.1864" y2="3068.124">
				<stop  offset="0" style="stop-color:#09005D"/>
				<stop  offset="1" style="stop-color:#1A0F91"/>
			</linearGradient>
			<path style="fill:url(#SVGID_00000117670823870075568980000010396717783560941192_);" d="M1383.246,2323.281
				c-47.933,289.278,10.398,714.974,30.071,798.293c1.204,5.101,5.321,9.009,10.491,9.866c8.782,1.456,23.239,2.644,37.491-1.496
				c4.911-1.426,8.361-5.856,8.562-10.965c2.639-67.361-2.112-480.892,42.552-644.321c2.262-8.282,7.321-15.506,14.318-20.481
				l86.687-61.626l6.646-99.615L1383.246,2323.281z"/>
			<g>
				
					<linearGradient id="SVGID_00000101077807472864219440000001323805791715874215_" gradientUnits="userSpaceOnUse" x1="1385.9919" y1="2196.8779" x2="1898.1598" y2="1645.6136">
					<stop  offset="0" style="stop-color:#4042E2"/>
					<stop  offset="1" style="stop-color:#4F52FF"/>
				</linearGradient>
				<path style="fill:url(#SVGID_00000101077807472864219440000001323805791715874215_);" d="M1688.676,1775.156
					c-143.646-2.373-302.142,37.717-302.142,37.717c-42.817,249.84-7.488,538.013-7.488,538.013
					c111.208,29.164,236.656-17.831,236.656-17.831c15.244-86.128,118.912-387.572,118.077-498.562
					C1733.6,1810.913,1696.439,1775.285,1688.676,1775.156z"/>
			</g>
			
				<linearGradient id="SVGID_00000021087879456958229170000016927617645882636731_" gradientUnits="userSpaceOnUse" x1="1240.4352" y1="2061.6443" x2="1752.6033" y2="1510.3796">
				<stop  offset="0" style="stop-color:#4042E2"/>
				<stop  offset="1" style="stop-color:#4F52FF"/>
			</linearGradient>
			<path style="fill:url(#SVGID_00000021087879456958229170000016927617645882636731_);" d="M1441.63,1951.965l-55.096-139.092
				c0,0-134.172,91.164-156.238,206.752c25.352,1.867,71.484,8.461,116.639,31.262
				C1356.857,1996.309,1441.63,1951.965,1441.63,1951.965z"/>
			
				<linearGradient id="SVGID_00000164481195597985360740000005135511623242983335_" gradientUnits="userSpaceOnUse" x1="1512.2742" y1="1860.5853" x2="1308.9712" y2="2255.4629">
				<stop  offset="0" style="stop-color:#FF928E"/>
				<stop  offset="1" style="stop-color:#FEB3B1"/>
			</linearGradient>
			<path style="fill:url(#SVGID_00000164481195597985360740000005135511623242983335_);" d="M1558.882,2082.844
				c0,0-150.642,85.136-201.472,12.44c-10.553-15.094-13.076-30.097-10.476-44.397c-45.155-22.801-91.287-29.395-116.639-31.262
				c-6.653,34.845-3.137,71.905,17.34,109.363c89.035,162.871,331.182-9.001,331.182-9.001L1558.882,2082.844z"/>
			<g>
				
					<linearGradient id="SVGID_00000047766173368661712720000004835993904592545700_" gradientUnits="userSpaceOnUse" x1="1370.0496" y1="1868.7185" x2="1742.5115" y2="2209.1819" gradientTransform="matrix(-1 0 0 1 3255.7585 0)">
					<stop  offset="0" style="stop-color:#09005D"/>
					<stop  offset="1" style="stop-color:#1A0F91"/>
				</linearGradient>
				<path style="fill:url(#SVGID_00000047766173368661712720000004835993904592545700_);" d="M1540.782,2190.551l77.401-270.302
					c3.861-13.483,15.481-23.287,29.421-24.828c20.852-2.305,53.815-5.754,90.368-8.845c52.214-4.416,111.753-8.104,153.785-6.686
					c14.285,0.482,23.225,15.662,16.849,28.454c-29.968,60.123-105.224,208.436-151.647,276.525
					c-7.788,11.423-20.798,18.138-34.623,18.009l-173.555-1.615C1543.229,2201.211,1539.255,2195.887,1540.782,2190.551z"/>
				
					<linearGradient id="SVGID_00000036251241552028361600000006928539292562157494_" gradientUnits="userSpaceOnUse" x1="934.3111" y1="2072.5054" x2="1043.8434" y2="2072.5054" gradientTransform="matrix(1 0 0 1 618.4032 0)">
					<stop  offset="0" style="stop-color:#FF928E"/>
					<stop  offset="1" style="stop-color:#FEB3B1"/>
				</linearGradient>
				<path style="fill:url(#SVGID_00000036251241552028361600000006928539292562157494_);" d="M1560.646,2121.184
					c0,0-11.453-47.092-6.833-63.801c4.62-16.708,13.571-38.189,43.406-33.415c29.835,4.774,65.029,17.342,65.029,17.342
					s-1.778,21.762-24.453,14.741l14.06,10.88c0,0-2.009,17.426-21.162,8.116l13.078,14.429c0,0-8.226,14.311-22.317,5.132
					C1607.362,2085.429,1600.608,2126.854,1560.646,2121.184z"/>
			</g>
			
				<linearGradient id="SVGID_00000078028067773790342560000006609507807487842447_" gradientUnits="userSpaceOnUse" x1="878.7995" y1="1733.5066" x2="1017.8026" y2="1733.5066" gradientTransform="matrix(1 0 0 1 618.4032 0)">
				<stop  offset="0" style="stop-color:#FF928E"/>
				<stop  offset="1" style="stop-color:#FEB3B1"/>
			</linearGradient>
			<path style="fill:url(#SVGID_00000078028067773790342560000006609507807487842447_);" d="M1543.174,1658.539l-45.706,132.178
				c-0.757,2.189,0.144,4.614,2.17,5.736c12.46,6.887,57.347,26.799,111.439-7.497c5.635-3.573,9.47-9.4,10.327-16.017l14.8-114.401
				H1543.174z"/>
			<g>
				
					<linearGradient id="SVGID_00000070120897519685882830000017410713527127815580_" gradientUnits="userSpaceOnUse" x1="-4670.876" y1="-887.5188" x2="-4722.8203" y2="-1058.8428" gradientTransform="matrix(0.746 -0.6659 0.6659 0.746 5744.7388 -803.1727)">
					<stop  offset="0" style="stop-color:#FF928E"/>
					<stop  offset="1" style="stop-color:#FEB3B1"/>
				</linearGradient>
				<path style="fill:url(#SVGID_00000070120897519685882830000017410713527127815580_);" d="M1642.624,1536.138
					c0,0,50.19,94.477,43.756,132.64c-6.433,38.164-68.635,35.425-122.952,4.429l-37.956-102.013L1642.624,1536.138z"/>
				
					<linearGradient id="SVGID_00000040557612434968862900000009782842535919976378_" gradientUnits="userSpaceOnUse" x1="-4722.5259" y1="-1185.186" x2="-4679.0752" y2="-937.355" gradientTransform="matrix(0.746 -0.6659 0.6659 0.746 5744.7388 -803.1727)">
					<stop  offset="0" style="stop-color:#09005D"/>
					<stop  offset="1" style="stop-color:#1A0F91"/>
				</linearGradient>
				<path style="fill:url(#SVGID_00000040557612434968862900000009782842535919976378_);" d="M1565.828,1623.109
					c2.207-0.978,3.022-3.68,1.7-5.7c-4.021-6.142-11.559-18.676-13.964-29.647c0,0-9.023-5.778,22.964-13.435
					c31.987-7.656,79.687-19.541,89.714-46.767c9.775-26.545-42.655-61.002-83.631-7.811c-1.56,2.023,22.132-30.232,20.576-32.257
					c-6.718-8.744-24.379-26.891-48.897-15.889c-22.945,10.296-25.531,27.109-25.215,35.584c0.093,2.493-2.136,4.431-4.587,3.963
					c-11.601-2.212-39.44-4.112-52.434,24.446c-10.703,23.522-3.746,36.839,2.589,43.351c2.052,2.109,1.153,5.584-1.661,6.445
					c-7.625,2.334-5.06-1.387-4.075,16.475c1.363,24.694,16.563,32.705,24.424,31.58c1.287-0.185,2.585,0.257,3.457,1.222
					c6.74,7.458,37.108,39.13,69.976,42.948c2.845,0.33,5.051-2.48,4.119-5.189l-14.224-41.348
					c-0.661-1.921,0.258-4.026,2.115-4.849L1565.828,1623.109z"/>
				
					<linearGradient id="SVGID_00000147926304688332215290000005894253338854028970_" gradientUnits="userSpaceOnUse" x1="-4723.9751" y1="-888.3159" x2="-4770.7104" y2="-1042.4598" gradientTransform="matrix(0.746 -0.6659 0.6659 0.746 5744.7388 -803.1727)">
					<stop  offset="0" style="stop-color:#FF928E"/>
					<stop  offset="1" style="stop-color:#FEB3B1"/>
				</linearGradient>
				<path style="fill:url(#SVGID_00000147926304688332215290000005894253338854028970_);" d="M1571.545,1628.977
					c0,0-35.735-24.518-38.346-3.871c-2.611,20.647,32.18,29.907,49.412,22.21L1571.545,1628.977z"/>
			</g>
		</g>
	</g>
</g>
</svg>
