<?xml version="1.0" encoding="utf-8"?>
<!-- Generator: Adobe Illustrator 27.5.0, SVG Export Plug-In . SVG Version: 6.00 Build 0)  -->
<svg version="1.1" xmlns="http://www.w3.org/2000/svg" xmlns:xlink="http://www.w3.org/1999/xlink" x="0px" y="0px"
	 viewBox="0 0 500 500" style="enable-background:new 0 0 500 500;" xml:space="preserve">
<g id="BACKGROUND">
	<rect style="fill:#FFFFFF;" width="500" height="500"/>
</g>
<g id="OBJECTS">
	<g>
		<g>
			<g>
				<linearGradient id="SVGID_1_" gradientUnits="userSpaceOnUse" x1="245.2186" y1="393.7844" x2="244.4252" y2="101.8308">
					<stop  offset="0" style="stop-color:#9BC9FF"/>
					<stop  offset="1" style="stop-color:#F9FFFF"/>
				</linearGradient>
				<path style="fill:url(#SVGID_1_);" d="M419.461,263.358c-5.676,10.149-12.976,18.352-21.368,25.129
					c-40.632,32.786-106.949,31.929-139.913,55.6c-39.775,28.557-158.165,46.018-194.656-35.713
					c-2.949-6.588-5.186-13.232-6.8-19.887c-7.2-29.837-1.658-59.807,10.584-85.515c18.897-39.675,53.73-69.255,82.299-72.661
					c56.324-6.711,71.003,13.455,104.912,18.607c33.921,5.164,76.623-32.508,127.927-28.379
					c18.685,1.502,33.075,12.988,42.201,29.848C440.617,179.824,440.572,225.653,419.461,263.358z"/>
				
					<linearGradient id="SVGID_00000119801450973148787550000010497770092748351641_" gradientUnits="userSpaceOnUse" x1="252.6364" y1="141.9172" x2="232.8025" y2="365.642">
					<stop  offset="0" style="stop-color:#FFFFFF"/>
					<stop  offset="1" style="stop-color:#FFFFFF;stop-opacity:0"/>
				</linearGradient>
				<path style="fill:url(#SVGID_00000119801450973148787550000010497770092748351641_);" d="M419.461,263.358
					c-5.676,10.149-12.976,18.352-21.368,25.129c-40.632,32.786-106.949,31.929-139.913,55.6
					c-39.775,28.557-158.165,46.018-194.656-35.713c-2.949-6.588-5.186-13.232-6.8-19.887c-7.2-29.837-1.658-59.807,10.584-85.515
					c5.064-2.715,12.464-4.808,23.182-4.607c29.358,0.534,36.826,26.52,36.826,26.52s14.223-16.86,29.948-15.67
					c15.736,1.191,16.927,25.786,16.927,25.786s35.312-38.695,72.594-23.115c35.857,14.979,39.074,46.33,39.263,48.723
					c-0.078-1.87-0.512-21.457,19.086-25.608c20.589-4.363,26.164,9.259,26.164,9.259s10.183-97.3,93.35-93.873
					C440.617,179.824,440.572,225.653,419.461,263.358z"/>
			</g>
			<g>
				
					<linearGradient id="SVGID_00000000198083010737241190000000528318488239294356_" gradientUnits="userSpaceOnUse" x1="267.3336" y1="254.4913" x2="257.549" y2="313.1992">
					<stop  offset="0" style="stop-color:#58DD91"/>
					<stop  offset="1" style="stop-color:#F9FFFF"/>
				</linearGradient>
				<path style="fill:url(#SVGID_00000000198083010737241190000000528318488239294356_);" d="M236.603,267.033
					c0,0,11.107-4.925,18.776-2.677c7.669,2.248,6.479,11.867,6.479,11.867s2.248-3.868,6.479,0
					c4.231,3.868,2.116,8.099,2.116,8.099s14.545-5.505,18.908,4.321c4.363,9.827-21.156,11.149-21.156,11.149
					s-35.304-2.645-33.982-6.479C235.545,289.478,236.603,267.033,236.603,267.033z"/>
				
					<linearGradient id="SVGID_00000079459045543629804010000016680038469288779688_" gradientUnits="userSpaceOnUse" x1="159.5886" y1="254.4913" x2="149.8039" y2="313.1992" gradientTransform="matrix(-1 0 0 1 256.0467 0)">
					<stop  offset="0" style="stop-color:#58DD91"/>
					<stop  offset="1" style="stop-color:#F9FFFF"/>
				</linearGradient>
				<path style="fill:url(#SVGID_00000079459045543629804010000016680038469288779688_);" d="M127.188,267.033
					c0,0-11.107-4.925-18.776-2.677c-7.669,2.248-6.479,11.867-6.479,11.867s-2.248-3.868-6.479,0
					c-4.231,3.868-2.116,8.099-2.116,8.099s-14.545-5.505-18.908,4.321c-4.363,9.827,21.156,11.149,21.156,11.149
					s35.304-2.645,33.982-6.479C128.246,289.478,127.188,267.033,127.188,267.033z"/>
			</g>
			<g>
				
					<linearGradient id="SVGID_00000039848191754728849160000005803909393433839779_" gradientUnits="userSpaceOnUse" x1="226.1066" y1="270.5579" x2="237.7422" y2="431.3398">
					<stop  offset="0" style="stop-color:#58DD91"/>
					<stop  offset="1" style="stop-color:#F9FFFF"/>
				</linearGradient>
				<path style="fill:url(#SVGID_00000039848191754728849160000005803909393433839779_);" d="M398.089,288.49
					c-3.161,2.549-6.477,4.897-9.927,7.067c-25.096,15.814-56.958,22.28-84.858,29.981c-17.495,4.819-33.409,10.138-45.128,18.552
					c-9.615,6.9-23.827,13.154-40.365,17.528c-7.601,2.003-15.692,3.606-24.05,4.685c-17.617,2.281-36.436,2.259-54.398-1.213
					c-17.717-3.417-34.6-10.172-48.678-21.356c-11.129-8.848-20.5-20.455-27.166-35.357c-2.949-6.588-5.186-13.232-6.8-19.887
					H398.089z"/>
				
					<linearGradient id="SVGID_00000013878900063932532680000009403871647233892485_" gradientUnits="userSpaceOnUse" x1="174.9207" y1="327.2302" x2="268.0069" y2="548.8392">
					<stop  offset="0" style="stop-color:#58DD91"/>
					<stop  offset="1" style="stop-color:#F9FFFF"/>
				</linearGradient>
				<path style="fill:url(#SVGID_00000013878900063932532680000009403871647233892485_);" d="M223.113,346.335
					c-5.142,5.052-6.243,10.361-5.297,15.28c-7.601,2.003-15.692,3.606-24.05,4.685c-17.617,2.281-36.436,2.259-54.398-1.213
					c8.013-11.452,32.663-19.887,42.49-30.393c11.641-12.42-59.228-3.439-56.591-20.099c2.649-16.66,13.221-16.07,13.221-16.07
					l24.595,2.126c0,0-4.229,11.574,25.919,15.269C219.151,319.626,239.773,329.942,223.113,346.335z"/>
				
					<linearGradient id="SVGID_00000099648790198876273870000003461053070948201357_" gradientUnits="userSpaceOnUse" x1="283.2505" y1="416.8863" x2="207.0889" y2="247.9026">
					<stop  offset="0" style="stop-color:#000000"/>
					<stop  offset="1" style="stop-color:#000000;stop-opacity:0"/>
				</linearGradient>
				<path style="opacity:0.45;fill:url(#SVGID_00000099648790198876273870000003461053070948201357_);" d="M388.162,295.557
					c-25.096,15.814-56.958,22.28-84.858,29.981c-17.495,4.819-33.409,10.138-45.128,18.552c-9.615,6.9-23.827,13.154-40.365,17.528
					c-7.601,2.003-15.692,3.606-24.05,4.685c-17.617,2.281-36.436,2.259-54.398-1.213c-17.717-3.417-34.6-10.172-48.678-21.356
					c14.501,6.577,35.924,12.186,66.551,11.797c72.205-0.913,76.434-35.034,132.624-39.786
					C325.217,312.751,362.51,305.818,388.162,295.557z"/>
			</g>
			<g>
				<g>
					<path style="fill:#101D38;" d="M261.313,291.452H158.144c-1.47,0-2.661-1.191-2.661-2.661v-0.297
						c0-1.47,1.191-2.661,2.661-2.661h103.169c1.47,0,2.661,1.191,2.661,2.661v0.297
						C263.974,290.261,262.783,291.452,261.313,291.452z"/>
					
						<linearGradient id="SVGID_00000134252194902419687440000013822063416318257595_" gradientUnits="userSpaceOnUse" x1="254.0648" y1="267.1249" x2="183.0601" y2="238.5643">
						<stop  offset="0" style="stop-color:#FF9D5A"/>
						<stop  offset="1" style="stop-color:#FF8022"/>
					</linearGradient>
					<polygon style="fill:url(#SVGID_00000134252194902419687440000013822063416318257595_);" points="251.269,247.299 
						251.269,285.827 191.907,285.827 186.621,210.15 185.909,199.934 185.631,195.894 188.335,198.009 206.987,212.621 					"/>
					<path style="fill:#101D38;" d="M266.393,257.793l-1.503,1.925c-0.913,1.169-2.604,1.38-3.773,0.467l-9.849-7.701
						l-45.718-35.768l-11.997-9.382c-0.979-0.746-2.337-0.746-3.305,0l-3.628,2.816l-27.01,21.022l-16.927,13.177
						c-1.169,0.913-2.86,0.701-3.773-0.467l-1.502-1.936c-0.901-1.158-0.701-2.827,0.445-3.751l20.422-16.259l27.633-22.002
						l2.426-1.925l1.914-1.525c0.979-0.779,2.37-0.779,3.35,0l15.18,12.075l57.169,45.484
						C267.094,254.956,267.295,256.625,266.393,257.793z"/>
					
						<linearGradient id="SVGID_00000141453731769185902510000004546576286526759852_" gradientUnits="userSpaceOnUse" x1="127.2544" y1="209.6465" x2="223.845" y2="256.0576">
						<stop  offset="0" style="stop-color:#000000"/>
						<stop  offset="1" style="stop-color:#000000;stop-opacity:0"/>
					</linearGradient>
					<path style="opacity:0.45;fill:url(#SVGID_00000141453731769185902510000004546576286526759852_);" d="M208.779,208.559
						c-0.612,1.269-1.235,2.637-1.792,4.062c-0.534,1.324-1.024,2.704-1.436,4.095c-1.157,3.917-1.714,8.002-0.89,11.607
						c2.649,11.641-6.076,6.544-5.676,20.399c0.223,7.768-0.612,23.849,3.294,37.104h-10.372l-5.286-75.677l-27.01,21.022
						c-0.467-3.261-0.924-6.355-1.336-9.237l27.633-22.002l-0.278-4.04l2.704,2.115l1.914-1.525c0.979-0.779,2.37-0.779,3.35,0
						L208.779,208.559z"/>
					
						<linearGradient id="SVGID_00000023963616713474769400000016071799103452355210_" gradientUnits="userSpaceOnUse" x1="141.6637" y1="260.7678" x2="199.1817" y2="117.1711">
						<stop  offset="0" style="stop-color:#FF9D5A"/>
						<stop  offset="1" style="stop-color:#FF8022"/>
					</linearGradient>
					<path style="fill:url(#SVGID_00000023963616713474769400000016071799103452355210_);" d="M191.907,186.902v108.129h-84.624
						V186.902l8.514-6.622c0-0.011,0.011-0.011,0.022-0.011l33.776-26.287L191.907,186.902z"/>
					<path style="fill:#101D38;" d="M204.098,189.876l-1.505,1.932c-0.911,1.169-2.596,1.379-3.766,0.469l-47.583-37.012
						c-0.969-0.754-2.327-0.754-3.297,0l-47.572,37.012c-1.17,0.91-2.856,0.7-3.766-0.469l-1.504-1.931
						c-0.904-1.161-0.705-2.833,0.446-3.75l52.395-41.719c0.979-0.779,2.366-0.779,3.345,0.001l52.363,41.718
						C204.803,187.043,205.002,188.715,204.098,189.876z"/>
					
						<linearGradient id="SVGID_00000017475154975283646060000009102610372826827694_" gradientUnits="userSpaceOnUse" x1="139.0642" y1="221.847" x2="145.2788" y2="252.6555">
						<stop  offset="0" style="stop-color:#FF9D5A"/>
						<stop  offset="1" style="stop-color:#FF8022"/>
					</linearGradient>
					
						<rect x="134.129" y="251" style="fill:url(#SVGID_00000017475154975283646060000009102610372826827694_);" width="30.941" height="46.147"/>
					
						<linearGradient id="SVGID_00000168088411277892762920000004977533475193583758_" gradientUnits="userSpaceOnUse" x1="161.475" y1="310.1013" x2="126.1708" y2="202.999">
						<stop  offset="0" style="stop-color:#9BC9FF"/>
						<stop  offset="1" style="stop-color:#F9FFFF"/>
					</linearGradient>
					
						<rect x="136.112" y="253.116" style="fill:url(#SVGID_00000168088411277892762920000004977533475193583758_);" width="26.974" height="41.915"/>
					<path style="fill:#101D38;" d="M201.183,300.651H98.015c-1.47,0-2.661-1.191-2.661-2.661v-0.298
						c0-1.47,1.191-2.661,2.661-2.661h103.169c1.47,0,2.661,1.191,2.661,2.661v0.298
						C203.844,299.459,202.653,300.651,201.183,300.651z"/>
					<path style="fill:#101D38;" d="M159.285,277.247c0,0.566-0.459,1.025-1.025,1.025c-0.566,0-1.025-0.459-1.025-1.025
						c0-0.566,0.459-1.025,1.025-1.025C158.826,276.222,159.285,276.681,159.285,277.247z"/>
					<g>
						
							<linearGradient id="SVGID_00000142868735987317620150000002592443299438888096_" gradientUnits="userSpaceOnUse" x1="159.7491" y1="232.9171" x2="172.1783" y2="258.5687">
							<stop  offset="0" style="stop-color:#FF9D5A"/>
							<stop  offset="1" style="stop-color:#FF8022"/>
						</linearGradient>
						
							<rect x="170.788" y="251" style="fill:url(#SVGID_00000142868735987317620150000002592443299438888096_);" width="14.842" height="40.031"/>
						
							<linearGradient id="SVGID_00000082367296413325047720000018296209928467695248_" gradientUnits="userSpaceOnUse" x1="195.9304" y1="318.2096" x2="170.8075" y2="251.3035">
							<stop  offset="0" style="stop-color:#9BC9FF"/>
							<stop  offset="1" style="stop-color:#F9FFFF"/>
						</linearGradient>
						
							<rect x="172.11" y="252.587" style="fill:url(#SVGID_00000082367296413325047720000018296209928467695248_);" width="12.198" height="36.858"/>
						
							<linearGradient id="SVGID_00000007416369308697601560000001377130795638001839_" gradientUnits="userSpaceOnUse" x1="169.587" y1="252.7581" x2="261.8803" y2="448.187">
							<stop  offset="0" style="stop-color:#9BC9FF"/>
							<stop  offset="1" style="stop-color:#F9FFFF"/>
						</linearGradient>
						
							<rect x="177.68" y="252.587" style="fill:url(#SVGID_00000007416369308697601560000001377130795638001839_);" width="1.058" height="36.858"/>
						
							<linearGradient id="SVGID_00000170258897056941332910000002388676684864469379_" gradientUnits="userSpaceOnUse" x1="163.3605" y1="289.7327" x2="194.73" y2="356.1568" gradientTransform="matrix(0 1 -1 0 474.1477 104.7247)">
							<stop  offset="0" style="stop-color:#9BC9FF"/>
							<stop  offset="1" style="stop-color:#F9FFFF"/>
						</linearGradient>
						<polygon style="fill:url(#SVGID_00000170258897056941332910000002388676684864469379_);" points="172.11,271.545 
							172.11,270.487 184.308,270.487 184.308,271.545 						"/>
					</g>
					<g>
						
							<linearGradient id="SVGID_00000142891607843788089890000013554329876332373153_" gradientUnits="userSpaceOnUse" x1="104.6915" y1="232.4964" x2="119.8974" y2="267.9327">
							<stop  offset="0" style="stop-color:#FF9D5A"/>
							<stop  offset="1" style="stop-color:#FF8022"/>
						</linearGradient>
						
							<rect x="113.799" y="251" style="fill:url(#SVGID_00000142891607843788089890000013554329876332373153_);" width="14.842" height="40.031"/>
						
							<linearGradient id="SVGID_00000157296149264739756190000016535376077262391965_" gradientUnits="userSpaceOnUse" x1="138.9414" y1="318.2096" x2="113.8185" y2="251.3035">
							<stop  offset="0" style="stop-color:#9BC9FF"/>
							<stop  offset="1" style="stop-color:#F9FFFF"/>
						</linearGradient>
						
							<rect x="115.121" y="252.587" style="fill:url(#SVGID_00000157296149264739756190000016535376077262391965_);" width="12.198" height="36.858"/>
						
							<linearGradient id="SVGID_00000057147558559937862380000002257840054038726034_" gradientUnits="userSpaceOnUse" x1="112.598" y1="252.7581" x2="204.8913" y2="448.187">
							<stop  offset="0" style="stop-color:#9BC9FF"/>
							<stop  offset="1" style="stop-color:#F9FFFF"/>
						</linearGradient>
						
							<rect x="120.691" y="252.587" style="fill:url(#SVGID_00000057147558559937862380000002257840054038726034_);" width="1.058" height="36.858"/>
						
							<linearGradient id="SVGID_00000122695966446702439410000014117165493078544280_" gradientUnits="userSpaceOnUse" x1="163.3605" y1="346.7217" x2="194.73" y2="413.1458" gradientTransform="matrix(0 1 -1 0 474.1477 104.7247)">
							<stop  offset="0" style="stop-color:#9BC9FF"/>
							<stop  offset="1" style="stop-color:#F9FFFF"/>
						</linearGradient>
						<polygon style="fill:url(#SVGID_00000122695966446702439410000014117165493078544280_);" points="115.121,271.545 
							115.121,270.487 127.319,270.487 127.319,271.545 						"/>
					</g>
					
						<linearGradient id="SVGID_00000008849305071554490910000000706692003017681300_" gradientUnits="userSpaceOnUse" x1="139.1664" y1="201.9613" x2="150.8022" y2="234.0919">
						<stop  offset="0" style="stop-color:#FF9D5A"/>
						<stop  offset="1" style="stop-color:#FF8022"/>
					</linearGradient>
					<circle style="fill:url(#SVGID_00000008849305071554490910000000706692003017681300_);" cx="149.599" cy="230.77" r="7.669"/>
					
						<linearGradient id="SVGID_00000175286244149610010230000000155823511759618488_" gradientUnits="userSpaceOnUse" x1="166.1264" y1="285.0489" x2="141.0037" y2="202.5406">
						<stop  offset="0" style="stop-color:#9BC9FF"/>
						<stop  offset="1" style="stop-color:#F9FFFF"/>
					</linearGradient>
					<circle style="fill:url(#SVGID_00000175286244149610010230000000155823511759618488_);" cx="149.599" cy="230.77" r="5.884"/>
					
						<linearGradient id="SVGID_00000173124230624689383740000008420270791733731741_" gradientUnits="userSpaceOnUse" x1="139.1664" y1="149.9217" x2="150.8022" y2="182.0523">
						<stop  offset="0" style="stop-color:#FF9D5A"/>
						<stop  offset="1" style="stop-color:#FF8022"/>
					</linearGradient>
					<circle style="fill:url(#SVGID_00000173124230624689383740000008420270791733731741_);" cx="149.599" cy="178.73" r="7.669"/>
					
						<linearGradient id="SVGID_00000030477547397335704220000003858719235922388394_" gradientUnits="userSpaceOnUse" x1="166.1264" y1="233.0093" x2="141.0037" y2="150.501">
						<stop  offset="0" style="stop-color:#9BC9FF"/>
						<stop  offset="1" style="stop-color:#F9FFFF"/>
					</linearGradient>
					<circle style="fill:url(#SVGID_00000030477547397335704220000003858719235922388394_);" cx="149.599" cy="178.73" r="5.884"/>
					
						<linearGradient id="SVGID_00000178913991236149359490000008497412697547303601_" gradientUnits="userSpaceOnUse" x1="166.6312" y1="136.9708" x2="150.2353" y2="201.2323">
						<stop  offset="0" style="stop-color:#000000"/>
						<stop  offset="1" style="stop-color:#000000;stop-opacity:0"/>
					</linearGradient>
					<path style="opacity:0.45;fill:url(#SVGID_00000178913991236149359490000008497412697547303601_);" d="M191.907,186.902v6.855
						c-0.868-0.133-1.747-0.145-2.637-0.011c-9.56,1.469-5.954-8.592-15.603-7.534c-9.66,1.057-5.687-8.725-15.213-7.479
						c-9.515,1.235-6.343-8.258-20.355-6.143c-6.577,0.99-15.091,4.374-22.28,7.679l33.776-26.287L191.907,186.902z"/>
					
						<linearGradient id="SVGID_00000098932415286128428240000004127334557007658146_" gradientUnits="userSpaceOnUse" x1="150.6177" y1="323.3927" x2="149.031" y2="266.8004">
						<stop  offset="0" style="stop-color:#000000"/>
						<stop  offset="1" style="stop-color:#000000;stop-opacity:0"/>
					</linearGradient>
					<path style="opacity:0.45;fill:url(#SVGID_00000098932415286128428240000004127334557007658146_);" d="M191.907,278.816v16.215
						h-84.624v-6.165c1.948-0.835,4.518-1.269,7.835-0.612c9.493,1.881,11.374-10.016,22.981-6.344
						c11.596,3.673,17.65-11.997,26.476-4.663c8.825,7.334,18.441-3.806,26.476,1.024
						C191.34,278.449,191.629,278.627,191.907,278.816z"/>
					<g>
						
							<linearGradient id="SVGID_00000169528733429503057460000005659557950213101194_" gradientUnits="userSpaceOnUse" x1="248.4114" y1="326.8227" x2="223.2887" y2="277.7674">
							<stop  offset="0" style="stop-color:#9BC9FF"/>
							<stop  offset="1" style="stop-color:#F9FFFF"/>
						</linearGradient>
						
							<rect x="196.605" y="255.926" style="fill:url(#SVGID_00000169528733429503057460000005659557950213101194_);" width="46.312" height="29.907"/>
						
							<linearGradient id="SVGID_00000060715284892072519740000017983969898188016560_" gradientUnits="userSpaceOnUse" x1="222.0052" y1="197.1882" x2="219.3607" y2="269.9113">
							<stop  offset="0" style="stop-color:#9BC9FF"/>
							<stop  offset="1" style="stop-color:#F9FFFF"/>
						</linearGradient>
						
							<rect x="196.605" y="258.504" style="fill:url(#SVGID_00000060715284892072519740000017983969898188016560_);" width="46.312" height="0.793"/>
						
							<linearGradient id="SVGID_00000071540699837122654600000007777076385081432720_" gradientUnits="userSpaceOnUse" x1="222.0053" y1="201.2517" x2="219.3607" y2="273.9777">
							<stop  offset="0" style="stop-color:#9BC9FF"/>
							<stop  offset="1" style="stop-color:#F9FFFF"/>
						</linearGradient>
						
							<rect x="196.605" y="262.57" style="fill:url(#SVGID_00000071540699837122654600000007777076385081432720_);" width="46.312" height="0.793"/>
						
							<linearGradient id="SVGID_00000059306000628436934410000001912518518324664990_" gradientUnits="userSpaceOnUse" x1="222.0053" y1="205.3176" x2="219.3607" y2="278.0436">
							<stop  offset="0" style="stop-color:#9BC9FF"/>
							<stop  offset="1" style="stop-color:#F9FFFF"/>
						</linearGradient>
						
							<rect x="196.605" y="266.636" style="fill:url(#SVGID_00000059306000628436934410000001912518518324664990_);" width="46.312" height="0.793"/>
						
							<linearGradient id="SVGID_00000154388336248361866140000007622133681588404123_" gradientUnits="userSpaceOnUse" x1="222.0052" y1="209.386" x2="219.3607" y2="282.1091">
							<stop  offset="0" style="stop-color:#9BC9FF"/>
							<stop  offset="1" style="stop-color:#F9FFFF"/>
						</linearGradient>
						
							<rect x="196.605" y="270.702" style="fill:url(#SVGID_00000154388336248361866140000007622133681588404123_);" width="46.312" height="0.793"/>
						
							<linearGradient id="SVGID_00000039843551156095521560000007959178072653939623_" gradientUnits="userSpaceOnUse" x1="222.0052" y1="213.4519" x2="219.3607" y2="286.175">
							<stop  offset="0" style="stop-color:#9BC9FF"/>
							<stop  offset="1" style="stop-color:#F9FFFF"/>
						</linearGradient>
						
							<rect x="196.605" y="274.768" style="fill:url(#SVGID_00000039843551156095521560000007959178072653939623_);" width="46.312" height="0.793"/>
						
							<linearGradient id="SVGID_00000136401770606498580830000014541555322930263467_" gradientUnits="userSpaceOnUse" x1="222.0052" y1="217.5178" x2="219.3607" y2="290.2409">
							<stop  offset="0" style="stop-color:#9BC9FF"/>
							<stop  offset="1" style="stop-color:#F9FFFF"/>
						</linearGradient>
						
							<rect x="196.605" y="278.834" style="fill:url(#SVGID_00000136401770606498580830000014541555322930263467_);" width="46.312" height="0.793"/>
						
							<linearGradient id="SVGID_00000114045594604440428440000008970397955167174319_" gradientUnits="userSpaceOnUse" x1="222.0053" y1="221.5813" x2="219.3607" y2="294.3073">
							<stop  offset="0" style="stop-color:#9BC9FF"/>
							<stop  offset="1" style="stop-color:#F9FFFF"/>
						</linearGradient>
						
							<rect x="196.605" y="282.9" style="fill:url(#SVGID_00000114045594604440428440000008970397955167174319_);" width="46.312" height="0.793"/>
					</g>
					<g>
						
							<linearGradient id="SVGID_00000011734336596922534840000017528521665426836103_" gradientUnits="userSpaceOnUse" x1="204.9926" y1="220.1681" x2="218.7441" y2="244.4976">
							<stop  offset="0" style="stop-color:#FF9D5A"/>
							<stop  offset="1" style="stop-color:#FF8022"/>
						</linearGradient>
						<polygon style="fill:url(#SVGID_00000011734336596922534840000017528521665426836103_);" points="209.729,252.587 
							209.729,244.257 232.196,244.257 232.196,252.587 						"/>
						
							<linearGradient id="SVGID_00000026878186566685763950000010586071671040120508_" gradientUnits="userSpaceOnUse" x1="183.6431" y1="267.6727" x2="169.543" y2="230.122" gradientTransform="matrix(0 1 -1 0 462.1477 74.7247)">
							<stop  offset="0" style="stop-color:#9BC9FF"/>
							<stop  offset="1" style="stop-color:#F9FFFF"/>
						</linearGradient>
						<polygon style="fill:url(#SVGID_00000026878186566685763950000010586071671040120508_);" points="210.619,251.845 
							210.619,244.999 231.305,244.999 231.305,251.845 						"/>
						
							<linearGradient id="SVGID_00000023998798295179194110000000414516430659008156_" gradientUnits="userSpaceOnUse" x1="168.858" y1="230.9384" x2="220.6572" y2="340.6221" gradientTransform="matrix(0 1 -1 0 462.1477 74.7247)">
							<stop  offset="0" style="stop-color:#9BC9FF"/>
							<stop  offset="1" style="stop-color:#F9FFFF"/>
						</linearGradient>
						<polygon style="fill:url(#SVGID_00000023998798295179194110000000414516430659008156_);" points="210.619,248.719 
							210.619,248.125 231.305,248.125 231.305,248.719 						"/>
						
							<linearGradient id="SVGID_00000112621198442639241320000009690941072041245837_" gradientUnits="userSpaceOnUse" x1="134.8159" y1="296.9676" x2="152.4218" y2="334.2476" gradientTransform="matrix(-1 0 0 -1 357.423 548.8724)">
							<stop  offset="0" style="stop-color:#9BC9FF"/>
							<stop  offset="1" style="stop-color:#F9FFFF"/>
						</linearGradient>
						<polygon style="fill:url(#SVGID_00000112621198442639241320000009690941072041245837_);" points="220.665,244.999 
							221.259,244.999 221.259,251.845 220.665,251.845 						"/>
					</g>
				</g>
				<g>
					<rect x="70.529" y="271.099" style="fill:#101D38;" width="3.702" height="34.775"/>
					
						<linearGradient id="SVGID_00000046315097570991524650000013481731184054429606_" gradientUnits="userSpaceOnUse" x1="250.6193" y1="255.0745" x2="250.8838" y2="255.0745">
						<stop  offset="0" style="stop-color:#FF9D5A"/>
						<stop  offset="1" style="stop-color:#FF8022"/>
					</linearGradient>
					<path style="fill:url(#SVGID_00000046315097570991524650000013481731184054429606_);" d="M97.874,271.099H46.885
						c-1.036,0-1.876-0.84-1.876-1.876v-28.296c0-1.036,0.84-1.876,1.876-1.876h50.989c1.036,0,1.876,0.84,1.876,1.876v28.296
						C99.75,270.259,98.91,271.099,97.874,271.099z"/>
					<text transform="matrix(1 0 0 1 62.571 254.2921)"><tspan x="0" y="0" style="fill:#FFFFFF; font-family:'Lato-Black'; font-size:11.7644px;">For</tspan><tspan x="-3.876" y="10.196" style="fill:#FFFFFF; font-family:'Lato-Black'; font-size:11.7644px;">Rent</tspan></text>
				</g>
				
					<linearGradient id="SVGID_00000077310451381755764030000001444615392408823984_" gradientUnits="userSpaceOnUse" x1="128.2877" y1="185.9269" x2="136.367" y2="193.2933">
					<stop  offset="0" style="stop-color:#FF9D5A"/>
					<stop  offset="1" style="stop-color:#FF8022"/>
				</linearGradient>
				
					<rect x="129.915" y="193.277" style="fill:url(#SVGID_00000077310451381755764030000001444615392408823984_);" width="39.361" height="24.154"/>
				
					<linearGradient id="SVGID_00000044875986604715246570000006199150153747659158_" gradientUnits="userSpaceOnUse" x1="173.3631" y1="265.8935" x2="140.571" y2="182.3686">
					<stop  offset="0" style="stop-color:#9BC9FF"/>
					<stop  offset="1" style="stop-color:#F9FFFF"/>
				</linearGradient>
				
					<rect x="131.162" y="194.661" style="fill:url(#SVGID_00000044875986604715246570000006199150153747659158_);" width="36.866" height="21.386"/>
				<g>
					
						<linearGradient id="SVGID_00000041996316790325955920000002631905983335744928_" gradientUnits="userSpaceOnUse" x1="143.9366" y1="237.9037" x2="134.6693" y2="165.1015">
						<stop  offset="0" style="stop-color:#9BC9FF"/>
						<stop  offset="1" style="stop-color:#F9FFFF"/>
					</linearGradient>
					
						<rect x="139.038" y="194.661" style="fill:url(#SVGID_00000041996316790325955920000002631905983335744928_);" width="1.51" height="21.386"/>
					
						<linearGradient id="SVGID_00000096016768503100406020000001600249663890205353_" gradientUnits="userSpaceOnUse" x1="153.7385" y1="237.9037" x2="144.4712" y2="165.1015">
						<stop  offset="0" style="stop-color:#9BC9FF"/>
						<stop  offset="1" style="stop-color:#F9FFFF"/>
					</linearGradient>
					
						<rect x="148.84" y="194.661" style="fill:url(#SVGID_00000096016768503100406020000001600249663890205353_);" width="1.51" height="21.386"/>
					
						<linearGradient id="SVGID_00000082339493267347038800000006692028313805640853_" gradientUnits="userSpaceOnUse" x1="163.5405" y1="237.9037" x2="154.2732" y2="165.1015">
						<stop  offset="0" style="stop-color:#9BC9FF"/>
						<stop  offset="1" style="stop-color:#F9FFFF"/>
					</linearGradient>
					
						<rect x="158.642" y="194.661" style="fill:url(#SVGID_00000082339493267347038800000006692028313805640853_);" width="1.51" height="21.386"/>
				</g>
				
					<linearGradient id="SVGID_00000165230707890043453250000017536164620868528258_" gradientUnits="userSpaceOnUse" x1="158.8121" y1="233.2474" x2="131.7227" y2="151.2666">
					<stop  offset="0" style="stop-color:#9BC9FF"/>
					<stop  offset="1" style="stop-color:#F9FFFF"/>
				</linearGradient>
				
					<rect x="131.162" y="204.487" style="fill:url(#SVGID_00000165230707890043453250000017536164620868528258_);" width="36.866" height="1.735"/>
			</g>
		</g>
		<g>
			<g>
				
					<linearGradient id="SVGID_00000079472783953526045590000002369473459889608334_" gradientUnits="userSpaceOnUse" x1="361.2836" y1="153.6971" x2="395.6622" y2="371.6042">
					<stop  offset="0" style="stop-color:#3152AF"/>
					<stop  offset="1" style="stop-color:#4FA2F1"/>
				</linearGradient>
				<path style="fill:url(#SVGID_00000079472783953526045590000002369473459889608334_);" d="M415.806,341.096
					c-1.013,0.924-3.116,1.948-4.196,4.296c-0.846,1.859-1.836,2.092-2.86,2.337c-0.89,0.211-1.814,0.434-2.693,1.725
					c-1.18,1.747-1.191,3.917-1.547,5.164c-0.122,0.445-0.289,0.768-0.568,0.913c-0.189,0.122-0.434,0.156-0.757,0.078
					c-0.879-0.211-9.081-7.401-18.663-19.721c-11.852-15.258-25.808-38.406-30.582-65.983c-0.467-2.727-0.857-5.498-1.135-8.313
					c-1.213-12.119-0.323-22.18,1.814-30.482c1.825-7.145,4.563-12.999,7.646-17.751c4.196-6.477,9.037-10.918,13.088-13.856
					c4.986-3.617,8.792-4.952,8.792-4.952s3.072,6.889,3.316,19.32c0.111,4.841-0.223,10.528-1.336,16.983
					c-3.962,23.004-6.944,34.511-3.773,49.379c3.183,14.879,33.131,57.915,33.921,59.506
					C416.53,340.251,416.296,340.662,415.806,341.096z"/>
				
					<linearGradient id="SVGID_00000173147832034341069530000010692981604827908784_" gradientUnits="userSpaceOnUse" x1="341.7787" y1="271.5429" x2="394.1398" y2="283.1787">
					<stop  offset="0" style="stop-color:#000000"/>
					<stop  offset="1" style="stop-color:#000000;stop-opacity:0"/>
				</linearGradient>
				<path style="opacity:0.45;fill:url(#SVGID_00000173147832034341069530000010692981604827908784_);" d="M384.523,335.888
					c-13.021-16.771-28.59-43.069-31.717-74.297c-1.213-12.119-0.323-22.18,1.814-30.482l14.256-8.391
					c0,0,2.971,15.469-1.792,27.377c-4.763,11.897-7.534,15.302-3.773,25.007c3.773,9.693,5.164,4.34,3.773,15.647
					c-1.391,11.307,7.935,4.162,6.945,14.879c-0.991,10.706,7.801,6.099,6.989,15.269
					C380.639,325.138,382.253,330.746,384.523,335.888z"/>
				
					<linearGradient id="SVGID_00000152257271370040883310000011422567590677075631_" gradientUnits="userSpaceOnUse" x1="325.6429" y1="159.3202" x2="360.0214" y2="377.2263">
					<stop  offset="0" style="stop-color:#3152AF"/>
					<stop  offset="1" style="stop-color:#4FA2F1"/>
				</linearGradient>
				<path style="fill:url(#SVGID_00000152257271370040883310000011422567590677075631_);" d="M374.93,211.311
					c-2.716,16.46-12.631,39.853-20.989,58.594c-5.854,13.132-10.929,23.983-12.242,28.579c-3.773,13.288-4.363,79.538-4.563,82.21
					c-0.033,0.523-0.256,0.935-0.59,1.269c-1.38,1.413-4.83,1.58-6.355,3.094c-1.881,1.892-3.862,0.801-6.043-0.59
					c-1.758-1.124-4.029,0.267-5.32-0.122c-0.312-0.1-0.557-0.301-0.735-0.668c-0.89-1.892-9.315-48.366-6.41-77.19
					c2.482-24.639,18.519-80.529,23.126-96.243c0.779-2.671,1.235-4.184,1.235-4.184l38.974-8.135
					c0.134,0.501,0.245,1.035,0.334,1.58C375.887,202.753,375.686,206.77,374.93,211.311z"/>
				<path style="opacity:0.25;fill:none;stroke:#FFFFFF;stroke-width:0.5564;stroke-miterlimit:10;" d="M346.485,207.852
					c0,0-20.522,75.625-23.695,98.368s1.359,78.246,1.359,78.246"/>
				<path style="fill:#101D38;" d="M344.514,399.713c-4.218-9.382-14.022-0.378-16.994,2.704c-2.983,3.072-8.825,1.68-17.161,7.534
					c-7.868,5.531-5.42,7.634-5.119,7.846c-0.634-0.356-1.068-0.79-1.224-1.302c-0.89-2.871,0.301-9.326,7.056-16.159
					c5.898-5.976,7.456-12.253,7.757-15.992c1.291,0.389,3.561-1.002,5.32,0.122c2.181,1.391,4.162,2.482,6.043,0.59
					c1.525-1.513,4.975-1.68,6.355-3.094c1.191,5.041,4.719,9.482,5.943,12.019C343.257,395.55,344.381,397.654,344.514,399.713z"/>
				<path style="fill:#223860;" d="M341.009,404.988c-5.854,2.882-15.97,8.035-21.323,11.507c-4.385,2.849-11.507,2.96-14.423,1.324
					c0,0-0.011-0.011-0.022-0.022c-0.301-0.211-2.749-2.315,5.119-7.846c8.336-5.854,14.178-4.463,17.161-7.534
					c2.971-3.083,12.776-12.086,16.994-2.704C344.637,401.671,343.858,403.586,341.009,404.988z"/>
				<path style="fill:#101D38;" d="M427.046,350.534c-4.04-1.614-7.557,2.448-8.925,7.523c-1.847,6.867-8.725,8.191-11.385,17.717
					c-2.448,8.725-0.412,9.66-0.056,9.76c-1.191-0.256-2.07-1.558-2.738-3.572c-1.625-4.919,0.824-22.058,0-26.431
					c0.278-0.145,0.445-0.467,0.568-0.913c0.356-1.246,0.367-3.417,1.547-5.164c0.879-1.291,1.803-1.514,2.693-1.725
					c1.024-0.245,2.014-0.479,2.86-2.337c1.079-2.348,3.183-3.372,4.196-4.296c1.458,1.959,3.873,4.685,7.078,6.243
					C425.199,348.475,426.434,349.41,427.046,350.534z"/>
				
					<linearGradient id="SVGID_00000178908899716575729920000013702273266850629274_" gradientUnits="userSpaceOnUse" x1="404.3365" y1="355.1715" x2="405.0494" y2="355.8014">
					<stop  offset="0" style="stop-color:#3B1C5E"/>
					<stop  offset="1" style="stop-color:#1C0D2B"/>
				</linearGradient>
				<path style="fill:url(#SVGID_00000178908899716575729920000013702273266850629274_);" d="M403.943,355.531l0.568-0.913
					C404.388,355.063,404.221,355.386,403.943,355.531z"/>
				<path style="fill:#223860;" d="M427.38,356.989c-0.401,5.431-7.801,13.889-13.355,22.225c-3.239,4.863-5.587,6.655-7.289,6.332
					c0,0-0.022,0-0.056-0.011c-0.356-0.1-2.393-1.035,0.056-9.76c2.66-9.526,9.538-10.851,11.385-17.717
					c1.369-5.075,4.886-9.137,8.925-7.523C427.881,352.036,427.614,353.884,427.38,356.989z"/>
				<path style="opacity:0.25;fill:none;stroke:#FFFFFF;stroke-width:0.5564;stroke-miterlimit:10;" d="M360.753,254.227
					c0,0,4.291,29.514,14.898,53.579c10.606,24.065,30.406,41.648,30.406,41.648"/>
			</g>
			<g>
				<path style="fill:#101D38;" d="M259.784,181.069L259.784,181.069c-0.904,0-1.636-0.733-1.636-1.636v-30.346
					c0-0.904,0.733-1.636,1.636-1.636l0,0c0.904,0,1.636,0.733,1.636,1.636v30.346C261.421,180.336,260.688,181.069,259.784,181.069
					z"/>
				<path style="fill:#101D38;" d="M259.788,123.779c-5.259,0-9.525,5.687-9.525,12.698c0,7.011,4.266,12.687,9.525,12.687
					c5.251,0,9.516-5.676,9.516-12.687C269.305,129.466,265.039,123.779,259.788,123.779z M259.788,146.694
					c-4.232,0-7.663-4.574-7.663-10.216c0-5.642,3.431-10.216,7.663-10.216c4.224,0,7.655,4.574,7.655,10.216
					C267.443,142.12,264.012,146.694,259.788,146.694z"/>
			</g>
			<g>
				
					<linearGradient id="SVGID_00000109736809259015928410000009465317219098408864_" gradientUnits="userSpaceOnUse" x1="307.7094" y1="111.4651" x2="317.1304" y2="87.367">
					<stop  offset="0" style="stop-color:#FFD0B0"/>
					<stop  offset="1" style="stop-color:#FF9271"/>
				</linearGradient>
				<path style="fill:url(#SVGID_00000109736809259015928410000009465317219098408864_);" d="M324.248,108.179
					c0,0-0.334,0.534-0.868,1.324v0.011c-1.692,2.593-5.286,7.979-5.487,7.145c-0.245-1.091-3.038-2.17-3.038-2.17
					s-0.59,0.735-1.491,1.925c-0.89,1.191-3.205,1.948-5.976,0.657c-2.782-1.291-4.863-3.739-4.863-3.739s-1.814,0.801-2.315,0.167
					c-0.49-0.623,0.067-4.196-1.024-5.487c-1.091-1.291-2.649-6.989-2.649-6.989c8.658,2.86,20.967-0.134,20.967-0.134
					s0.145-2.326,1.981-2.771c1.836-0.445,2.526,0.69,2.827,2.905c0.301,2.215-2.081,2.893-1.792,3.884
					c0.167,0.579,1.402,1.591,2.404,2.337c0.367,0.278,0.69,0.512,0.935,0.679C324.104,108.079,324.248,108.179,324.248,108.179z"/>
				<path style="fill:#101D38;" d="M327.687,92.943c-1.013,7.178-3.806,11.563-4.763,14.301c-1.002-0.746-2.237-1.758-2.404-2.337
					c-0.289-0.991,2.092-1.669,1.792-3.884c-0.3-2.215-0.99-3.35-2.827-2.905c-1.836,0.445-1.981,2.771-1.981,2.771
					s-12.309,2.994-20.967,0.134c-5.943,1.046-13.021-6.499-11.162-13.566c1.847-7.078,9.649-7.145,13.611-4.63
					c3.973,2.515,16.471-5.954,20.566-0.534C323.058,79.655,329,83.55,327.687,92.943z"/>
				<path style="fill:#1C0D2B;" d="M302.662,106.527c0.342,0.625,0.294,1.309-0.107,1.528c-0.4,0.219-1.002-0.11-1.344-0.735
					c-0.342-0.625-0.294-1.309,0.107-1.528C301.719,105.573,302.32,105.902,302.662,106.527z"/>
				<path style="fill:#FFFFFF;" d="M306.964,113.857c0,0,2.281-2.802,2.281-4.537C310.707,111.13,310.856,114.799,306.964,113.857z"
					/>
				<path style="fill:none;stroke:#1C0D2B;stroke-width:0.5564;stroke-miterlimit:10;" d="M299.872,105.425
					c0,0,0.661-0.959,2.016-0.859"/>
				
					<linearGradient id="SVGID_00000100359017804810094070000011003874194241682316_" gradientUnits="userSpaceOnUse" x1="316.5464" y1="100.5815" x2="322.9594" y2="101.8376">
					<stop  offset="0" style="stop-color:#000000"/>
					<stop  offset="1" style="stop-color:#000000;stop-opacity:0"/>
				</linearGradient>
				<path style="opacity:0.45;fill:url(#SVGID_00000100359017804810094070000011003874194241682316_);" d="M319.914,100.213
					c-0.323-0.194-0.893,1.917-0.397,1.983C320.013,102.263,321.401,101.106,319.914,100.213z"/>
			</g>
			<g>
				
					<linearGradient id="SVGID_00000010298482756607714310000010387004326533370271_" gradientUnits="userSpaceOnUse" x1="279.2216" y1="172.0245" x2="381.0351" y2="141.8772">
					<stop  offset="0" style="stop-color:#FFD0B0"/>
					<stop  offset="1" style="stop-color:#FF9271"/>
				</linearGradient>
				<path style="fill:url(#SVGID_00000010298482756607714310000010387004326533370271_);" d="M324.682,174.185
					c-0.523,0.868-1.091,1.725-1.691,2.56c-0.011,0.033-0.034,0.056-0.056,0.089c-0.067,0.1-0.145,0.2-0.234,0.301
					c-5.754,7.868-14.623,13.911-26.164,14.646c-8.503,0.534-16.026-2.849-21.713-6.722c-0.011-0.011-0.033-0.022-0.044-0.022
					c-6.855-4.663-11.029-10.016-11.029-10.016s-8.58-3.417-9.515-7.434c-0.946-4.018,0.545-9.571,0.59-11.363
					c0.044-1.781,1.636-3.417,3.027-3.661c0.49,1.781,3.116,3.762,3.661,3.316c0.545-0.445-0.734-2.382-0.389-2.526
					c0.345-0.145,4.707,1.592,5.309,2.081c0.59,0.501,4.262,9.07,9.415,12.353c5.153,3.272,21.813,5.943,25.986,2.771
					c2.971-3.116,4.863-8.091,6.065-13.344C312.441,158.025,321.232,161.297,324.682,174.185z"/>
				
					<linearGradient id="SVGID_00000042703919074793449460000009028880853999319439_" gradientUnits="userSpaceOnUse" x1="312.5718" y1="227.2721" x2="287.7797" y2="144.3669">
					<stop  offset="0" style="stop-color:#000000"/>
					<stop  offset="1" style="stop-color:#000000;stop-opacity:0"/>
				</linearGradient>
				<path style="opacity:0.45;fill:url(#SVGID_00000042703919074793449460000009028880853999319439_);" d="M322.701,177.134
					c-5.754,7.868-14.623,13.911-26.164,14.646c-8.503,0.534-16.026-2.849-21.713-6.722c3.183,1.424,7.612,2.893,13.255,3.617
					C300.599,190.277,319.641,180.74,322.701,177.134z"/>
				
					<linearGradient id="SVGID_00000104696198725184612930000000962994140317075617_" gradientUnits="userSpaceOnUse" x1="451.3658" y1="229.7806" x2="213.3617" y2="76.6648">
					<stop  offset="0" style="stop-color:#9BC9FF"/>
					<stop  offset="1" style="stop-color:#F9FFFF"/>
				</linearGradient>
				<path style="fill:url(#SVGID_00000104696198725184612930000000962994140317075617_);" d="M385.035,196.342
					c-0.022,0.167-0.045,0.323-0.078,0.479v0.011c-1.013,4.863-7,6.388-14.201,7.545c-7.445,1.191-4.663,3.172-8.625,5.253
					c-3.973,2.081-5.364-1.191-10.316-2.582c-4.964-1.391-7.345,3.673-11.207,2.582c-3.873-1.091-3.172-1.591-4.563-3.572
					c-1.391-1.981-0.79-3.472,0.501-11.007c0.579-3.406,0.245-8.881-0.734-14.679c-1.191-7.045-3.35-14.546-6.01-19.331
					c-0.868,4.44-2.593,8.97-5.119,13.143c-3.45-12.887-12.242-16.159-16.782-16.972c2.159-9.282,2.215-19.42,2.493-21.69
					c0.223-1.881,0.412-3.65,1.169-5.91c0.679-2.048,1.825-4.485,3.862-7.746c0.234-0.367,0.479-0.734,0.735-1.102
					c4.563-6.51,13.243-12.854,13.243-12.854c4.685-1.024,10.083,0.167,15.581,2.571c0.245,0.1,0.49,0.211,0.734,0.323
					c1.213,0.556,2.437,1.157,3.65,1.825c16.092,8.658,31.706,25.396,31.706,25.396s-0.011,0.022-0.022,0.067
					c-0.111,0.401-0.779,2.537-2.382,4.774c-0.167,0.234-0.345,0.467-0.534,0.701c-0.2,0.256-0.412,0.501-0.646,0.746
					c-0.167,0.189-0.345,0.378-0.534,0.556c-0.089,0.078-0.167,0.167-0.256,0.245c-0.223,0.212-0.456,0.412-0.712,0.612
					c-0.245,0.2-0.501,0.389-0.768,0.579c-0.089,0.067-0.178,0.134-0.278,0.189c-0.245,0.167-0.512,0.323-0.779,0.479
					c-0.044,0.033-0.089,0.056-0.133,0.078c0.111,0.223,0.256,0.579,0.434,1.057c0.467,1.336,1.146,3.617,1.925,6.488
					c0.111,0.378,0.212,0.779,0.323,1.191c0.412,1.536,0.846,3.216,1.291,4.997c0.156,0.59,0.3,1.191,0.456,1.803
					c0.512,2.059,1.035,4.218,1.547,6.41l0.056,0.189C382.842,180.984,385.402,193.571,385.035,196.342z"/>
				
					<linearGradient id="SVGID_00000011004897994753814730000009598297218725776009_" gradientUnits="userSpaceOnUse" x1="319.2109" y1="105.3889" x2="344.2014" y2="168.857">
					<stop  offset="0" style="stop-color:#9BC9FF"/>
					<stop  offset="1" style="stop-color:#F9FFFF"/>
				</linearGradient>
				<path style="fill:url(#SVGID_00000011004897994753814730000009598297218725776009_);" d="M329.401,107.912
					c0,0-8.681,6.344-13.243,12.854c0,0-2.126-3.55-0.323-5.843C317.638,112.642,323.191,104.64,329.401,107.912z"/>
				
					<linearGradient id="SVGID_00000093140165869153224510000008383758116584002719_" gradientUnits="userSpaceOnUse" x1="304.2472" y1="163.2716" x2="373.5327" y2="154.0159">
					<stop  offset="0" style="stop-color:#000000"/>
					<stop  offset="1" style="stop-color:#000000;stop-opacity:0"/>
				</linearGradient>
				<path style="opacity:0.45;fill:url(#SVGID_00000093140165869153224510000008383758116584002719_);" d="M338.916,173.595
					c-1.124,1.925-2.193,4.385-3.105,6.778c-1.191-7.045-3.35-14.546-6.01-19.331c0,0,3.439-18.786,1.847-22.748
					c6.077,2.248,1.458,7.801,4.897,12.431c3.428,4.63-1.324,6.477,0,12.297C337.859,168.843,342.222,167.941,338.916,173.595z"/>
				<path style="opacity:0.45;fill:none;stroke:#FFFFFF;stroke-width:0.5564;stroke-miterlimit:10;" d="M331.649,138.294
					c0,0-4.206-14.449-20.086-8.679"/>
				
					<linearGradient id="SVGID_00000151516925149731271540000015252287343985407119_" gradientUnits="userSpaceOnUse" x1="423.5617" y1="187.9241" x2="301.3859" y2="181.1807">
					<stop  offset="0" style="stop-color:#FFD0B0"/>
					<stop  offset="1" style="stop-color:#FF9271"/>
				</linearGradient>
				<path style="fill:url(#SVGID_00000151516925149731271540000015252287343985407119_);" d="M405.89,227.147
					c-1.513,4.229-6.41,6.021-6.878,6.021c-0.456,0,0.734-8.068,0.067-10.116c-0.924,8.002-0.857,9.849-1.847,10.572
					c-0.99,0.735-2.115,0.267-2.115-1.124c0-1.38,1.914-9.538,0.723-11.841c-1.38,1.202-0.634,3.583-2.137,3.049
					c-1.491-0.523-1.692-4.029-0.835-6.544c0.857-2.515,2.382-3.105,2.515-5.153c0.078-1.191-2.927-15.692-7.968-29.959
					c-2.526-7.111-5.553-14.156-8.959-19.464c-0.612-2.437-1.202-4.752-1.747-6.8c-0.111-0.412-0.211-0.812-0.323-1.191
					c-0.779-2.871-1.458-5.153-1.925-6.488c-0.178-0.479-0.323-0.835-0.434-1.057c0.044-0.022,0.089-0.044,0.133-0.078
					c0.334-0.178,0.646-0.378,0.946-0.59c0.011,0,0.011-0.011,0.022-0.011c0.301-0.2,0.59-0.412,0.857-0.645
					c0.256-0.2,0.49-0.401,0.712-0.612c1.28-1.191,2.226-2.515,2.893-3.695c0.134-0.234,0.267-0.467,0.378-0.69
					c0.801-1.547,1.102-2.704,1.102-2.704c1.692,1.836,3.873,4.741,6.154,8.18c5.587,8.436,11.786,20.143,12.91,27.655
					c1.591,10.584,3.183,32.663,3.839,34.912C404.633,211.021,407.415,222.918,405.89,227.147z"/>
				
					<linearGradient id="SVGID_00000006679672054652768370000009205335030559496852_" gradientUnits="userSpaceOnUse" x1="355.054" y1="157.3415" x2="402.2581" y2="161.7049">
					<stop  offset="0" style="stop-color:#000000"/>
					<stop  offset="1" style="stop-color:#000000;stop-opacity:0"/>
				</linearGradient>
				<path style="opacity:0.45;fill:url(#SVGID_00000006679672054652768370000009205335030559496852_);" d="M387.661,172.204
					c-0.534,3.428-0.445,6.878-0.245,9.849c-2.526-7.111-5.553-14.156-8.959-19.464c-0.612-2.437-1.202-4.752-1.747-6.8
					c-0.111-0.412-0.211-0.812-0.323-1.191c-0.779-2.871-1.458-5.153-1.925-6.488l-0.301-1.135c0.334-0.189,0.646-0.378,0.946-0.59
					c0.011,0,0.011-0.011,0.022-0.011c0.301-0.212,0.59-0.423,0.857-0.645c0.256-0.2,0.49-0.401,0.712-0.612
					c1.28-1.191,2.226-2.515,2.893-3.695c0.134-0.234,0.267-0.467,0.378-0.69c0.801-1.547,1.102-2.704,1.102-2.704
					c1.692,1.836,3.873,4.741,6.154,8.18c0.612,3.951,0.657,7.623-0.445,10.728C384.534,163.289,388.818,164.825,387.661,172.204z"
					/>
				
					<linearGradient id="SVGID_00000083776551364275890620000013881608325529387451_" gradientUnits="userSpaceOnUse" x1="336.7731" y1="130.4521" x2="402.8855" y2="128.7332">
					<stop  offset="0" style="stop-color:#000000"/>
					<stop  offset="1" style="stop-color:#000000;stop-opacity:0"/>
				</linearGradient>
				<path style="opacity:0.45;fill:url(#SVGID_00000083776551364275890620000013881608325529387451_);" d="M374.162,146.974
					l-0.133-0.479c0,0-5.542-23.081-24.662-33.865c16.092,8.658,31.706,25.396,31.706,25.396S379.504,143.981,374.162,146.974z"/>
			</g>
			
				<linearGradient id="SVGID_00000036973717023766401740000010903366044668444574_" gradientUnits="userSpaceOnUse" x1="376.2097" y1="183.062" x2="353.4009" y2="225.5063">
				<stop  offset="0" style="stop-color:#000000"/>
				<stop  offset="1" style="stop-color:#000000;stop-opacity:0"/>
			</linearGradient>
			<path style="opacity:0.45;fill:url(#SVGID_00000036973717023766401740000010903366044668444574_);" d="M387.461,213.87
				c-3.038,0.133-7.479-1.836-12.531-2.56c-6.043-0.857-8.458,1.458-12.665,2.048c-2.115,0.312-4.685,0.167-8.402-1.024
				c-11.107-3.561-6.878,0.534-13.733,0c-2.404-0.189-4.107-1.057-5.32-2.092c0.779-2.671,1.235-4.184,1.235-4.184
				c1.391,1.981,0.69,2.482,4.563,3.572c3.862,1.091,6.243-3.973,11.207-2.582c4.952,1.391,6.344,4.663,10.316,2.582
				c3.962-2.081,1.18-4.062,8.625-5.253c7.2-1.157,13.188-2.682,14.201-7.545C385.892,199.803,387.294,205.613,387.461,213.87z"/>
		</g>
		
			<linearGradient id="SVGID_00000130647163077401880530000006810802393045355406_" gradientUnits="userSpaceOnUse" x1="139.6431" y1="308.0135" x2="85.6951" y2="94.8664">
			<stop  offset="0" style="stop-color:#9BC9FF"/>
			<stop  offset="1" style="stop-color:#F9FFFF"/>
		</linearGradient>
		<circle style="fill:url(#SVGID_00000130647163077401880530000006810802393045355406_);" cx="94.537" cy="129.802" r="8.224"/>
		
			<linearGradient id="SVGID_00000068658143369601013540000013140853968146351752_" gradientUnits="userSpaceOnUse" x1="556.1721" y1="432.8257" x2="421.3029" y2="240.8349">
			<stop  offset="0" style="stop-color:#9BC9FF"/>
			<stop  offset="1" style="stop-color:#F9FFFF"/>
		</linearGradient>
		<circle style="fill:url(#SVGID_00000068658143369601013540000013140853968146351752_);" cx="447.601" cy="278.272" r="8.224"/>
		
			<linearGradient id="SVGID_00000127737669291387553230000012410207131729113017_" gradientUnits="userSpaceOnUse" x1="489.5839" y1="232.3799" x2="354.7139" y2="40.3882">
			<stop  offset="0" style="stop-color:#9BC9FF"/>
			<stop  offset="1" style="stop-color:#F9FFFF"/>
		</linearGradient>
		<circle style="fill:url(#SVGID_00000127737669291387553230000012410207131729113017_);" cx="381.013" cy="77.825" r="8.224"/>
	</g>
</g>
<g id="DESIGNED_BY_FREEPIK">
	<g>
		<g id="XMLID_319_">
			<g id="XMLID_338_">
				<path id="XMLID_346_" style="fill:#1D262D;" d="M260.104,465.465c-0.432,0.443-0.803,0.931-1.108,1.453l-0.465-0.241
					c-0.067-0.298-0.349-0.503-0.659-0.466c-0.331,0.039-0.568,0.339-0.529,0.67c0.039,0.331,0.339,0.568,0.67,0.529
					c0.066-0.008,0.127-0.026,0.184-0.052l0.451,0.234c-0.251,0.554-0.433,1.139-0.539,1.744l0.747,0.132
					c0.23-1.306,0.85-2.507,1.792-3.473L260.104,465.465z"/>
				<path id="XMLID_345_" style="fill:#1D262D;" d="M265.592,463.163c-0.171,0-0.341,0.006-0.51,0.017l-0.074-0.626
					c0.188-0.149,0.296-0.389,0.266-0.645c-0.046-0.393-0.402-0.674-0.795-0.628c-0.393,0.046-0.674,0.402-0.628,0.795
					c0.03,0.254,0.189,0.461,0.404,0.564l0.074,0.624c-0.714,0.116-1.403,0.332-2.06,0.646l0.327,0.684
					c0.934-0.447,1.942-0.673,2.995-0.673c0.496,0,0.993,0.053,1.475,0.158l0.161-0.741
					C266.692,463.222,266.142,463.163,265.592,463.163z"/>
				<path id="XMLID_344_" style="fill:#1D262D;" d="M272.194,465.711c0.331-0.04,0.566-0.341,0.526-0.672
					c-0.04-0.331-0.341-0.566-0.672-0.526c-0.309,0.038-0.535,0.304-0.53,0.609l-0.416,0.363c-0.418-0.43-0.889-0.813-1.408-1.139
					l-0.404,0.641c1.134,0.715,2.021,1.726,2.563,2.925l0.69-0.313c-0.251-0.554-0.567-1.072-0.942-1.545l0.402-0.351
					C272.065,465.716,272.129,465.719,272.194,465.711z"/>
				<path id="XMLID_343_" style="fill:#1D262D;" d="M265.044,473.372c-0.386,0.023-0.775,0.035-1.157,0.035
					c-0.88,0-1.733-0.061-2.478-0.179c-0.39-0.062-0.846-0.155-1.27-0.292c1.046,1.861,3.069,3.125,5.388,3.125
					c2.855,0,5.262-1.916,5.95-4.504c-0.682,0.449-1.505,0.825-2.459,1.123C267.839,473.047,266.463,473.286,265.044,473.372z"/>
				<path id="XMLID_339_" style="fill:#1D262D;" d="M265.592,464.68c-3.352,0-6.08,2.666-6.08,5.943
					c0,0.426,0.046,0.849,0.137,1.261c0.673,0.483,2.706,0.89,5.348,0.731c2.879-0.173,5.297-0.957,6.672-2.159
					c-0.006-0.195-0.021-0.39-0.045-0.582C271.244,466.913,268.65,464.68,265.592,464.68z M263.432,471.194
					c-1.02,0-1.85-0.83-1.85-1.85c0-1.02,0.83-1.85,1.85-1.85c1.02,0,1.85,0.83,1.85,1.85
					C265.282,470.365,264.452,471.194,263.432,471.194z M268.17,470.286c-0.75,0-1.36-0.61-1.36-1.36s0.61-1.361,1.36-1.361
					c0.75,0,1.361,0.61,1.361,1.361S268.92,470.286,268.17,470.286z"/>
			</g>
			<path id="XMLID_336_" style="fill:#1D262D;" d="M281.595,466.547c-0.295-0.116-0.805-0.309-1.382-0.237
				c-0.551,0.069-0.844,0.341-0.844,1.007v0.866h2.228v1.717h-2.228v5.455h-1.932v-5.455h-1.34v-1.717h1.34v-0.888
				c0-1.68,0.896-2.783,2.568-2.783c0.643,0,1.157,0.122,1.59,0.308L281.595,466.547z"/>
			<path id="XMLID_334_" style="fill:#1D262D;" d="M286.298,469.879c-0.177-0.03-0.358-0.046-0.526-0.046
				c-0.896,0-1.51,0.548-1.51,1.614v3.908h-1.932v-7.172h1.873v0.785c0.451-0.673,1.14-0.977,2.021-0.977
				c0.414,0,0.848,0.128,1.094,0.337L286.298,469.879z"/>
			<path id="XMLID_331_" style="fill:#1D262D;" d="M293.965,471.757c0,0.222-0.015,0.489-0.037,0.651h-5.085
				c0.207,1.036,0.933,1.488,1.843,1.488c0.622,0,1.295-0.252,1.813-0.688l1.133,1.243c-0.814,0.748-1.85,1.088-3.057,1.088
				c-2.198,0-3.723-1.495-3.723-3.753c0-2.258,1.48-3.797,3.627-3.797C292.544,467.99,293.958,469.522,293.965,471.757z
				 M288.851,471.091h3.175c-0.177-0.918-0.733-1.436-1.562-1.436C289.554,469.655,289.021,470.203,288.851,471.091z"/>
			<path id="XMLID_328_" style="fill:#1D262D;" d="M301.618,471.757c0,0.222-0.015,0.489-0.037,0.651h-5.085
				c0.207,1.036,0.932,1.488,1.843,1.488c0.622,0,1.295-0.252,1.814-0.688l1.132,1.243c-0.814,0.748-1.85,1.088-3.057,1.088
				c-2.198,0-3.723-1.495-3.723-3.753c0-2.258,1.48-3.797,3.627-3.797C300.197,467.99,301.611,469.522,301.618,471.757z
				 M296.504,471.091h3.175c-0.178-0.918-0.733-1.436-1.562-1.436C297.207,469.655,296.674,470.203,296.504,471.091z"/>
			<path id="XMLID_325_" style="fill:#1D262D;" d="M309.964,471.764c0,2.154-1.495,3.775-3.471,3.775
				c-0.962,0-1.643-0.378-2.109-0.933v3.708h-1.924v-10.133h1.887v0.792c0.466-0.585,1.155-0.984,2.139-0.984
				C308.469,467.99,309.964,469.61,309.964,471.764z M304.287,471.764c0,1.132,0.747,1.976,1.843,1.976
				c1.14,0,1.85-0.881,1.85-1.976c0-1.095-0.71-1.976-1.85-1.976C305.035,469.788,304.287,470.632,304.287,471.764z"/>
			<path id="XMLID_322_" style="fill:#1D262D;" d="M313.068,465.836c0,0.696-0.54,1.229-1.236,1.229
				c-0.696,0-1.229-0.533-1.229-1.229c0-0.696,0.533-1.243,1.229-1.243C312.527,464.592,313.068,465.14,313.068,465.836z
				 M312.809,475.354h-1.932v-7.172h1.932V475.354z"/>
			<path id="XMLID_320_" style="fill:#1D262D;" d="M316.032,470.736l2.701-2.554h2.368l-3.479,3.375l3.501,3.797h-2.376
				l-2.716-2.901v2.901H314.1v-10.658h1.932V470.736z"/>
		</g>
		<g>
			<path style="fill:#1D262D;" d="M184.412,475.289v-1.055c-0.527,0.718-1.391,1.23-2.388,1.23c-1.846,0-3.149-1.406-3.149-3.706
				c0-2.256,1.289-3.721,3.149-3.721c0.952,0,1.816,0.469,2.388,1.245v-3.765h1.099v9.77H184.412z M184.412,473.37v-3.208
				c-0.395-0.615-1.245-1.143-2.124-1.143c-1.421,0-2.27,1.172-2.27,2.739c0,1.567,0.85,2.724,2.27,2.724
				C183.168,474.483,184.017,473.986,184.412,473.37z"/>
			<path style="fill:#1D262D;" d="M186.932,471.744c0-2.051,1.465-3.706,3.486-3.706c2.139,0,3.398,1.67,3.398,3.794v0.279h-5.727
				c0.088,1.333,1.025,2.446,2.549,2.446c0.805,0,1.626-0.322,2.182-0.894l0.527,0.718c-0.703,0.703-1.655,1.084-2.812,1.084
				C188.44,475.465,186.932,473.956,186.932,471.744z M190.403,468.947c-1.509,0-2.256,1.274-2.314,2.358h4.643
				C192.718,470.25,192.015,468.947,190.403,468.947z"/>
			<path style="fill:#1D262D;" d="M194.607,474.351l0.571-0.791c0.469,0.542,1.362,1.011,2.329,1.011c1.084,0,1.67-0.513,1.67-1.216
				c0-1.714-4.38-0.659-4.38-3.281c0-1.098,0.952-2.036,2.636-2.036c1.201,0,2.051,0.454,2.622,1.026l-0.513,0.762
				c-0.424-0.513-1.201-0.894-2.109-0.894c-0.967,0-1.567,0.483-1.567,1.113c0,1.552,4.38,0.527,4.38,3.281
				c0,1.187-0.952,2.138-2.783,2.138C196.306,475.465,195.325,475.113,194.607,474.351z"/>
			<path style="fill:#1D262D;" d="M201.477,466.471c0-0.41,0.337-0.747,0.732-0.747c0.41,0,0.747,0.337,0.747,0.747
				c0,0.41-0.337,0.732-0.747,0.732C201.814,467.203,201.477,466.881,201.477,466.471z M201.667,475.289v-7.075h1.099v7.075H201.667
				z"/>
			<path style="fill:#1D262D;" d="M204.582,477.105l0.556-0.82c0.586,0.703,1.289,0.967,2.3,0.967c1.172,0,2.27-0.571,2.27-2.124
				v-1.011c-0.513,0.718-1.377,1.26-2.373,1.26c-1.845,0-3.149-1.377-3.149-3.662c0-2.27,1.289-3.677,3.149-3.677
				c0.952,0,1.802,0.469,2.373,1.245v-1.069h1.098v6.87c0,2.344-1.641,3.076-3.369,3.076
				C206.237,478.16,205.417,477.926,204.582,477.105z M209.709,473.253v-3.091c-0.381-0.615-1.23-1.143-2.109-1.143
				c-1.421,0-2.27,1.128-2.27,2.695c0,1.553,0.849,2.695,2.27,2.695C208.478,474.41,209.328,473.868,209.709,473.253z"/>
			<path style="fill:#1D262D;" d="M217.413,475.289v-4.629c0-1.245-0.63-1.641-1.582-1.641c-0.865,0-1.685,0.527-2.095,1.099v5.17
				h-1.099v-7.075h1.099v1.025c0.498-0.586,1.465-1.201,2.519-1.201c1.48,0,2.256,0.747,2.256,2.285v4.966H217.413z"/>
			<path style="fill:#1D262D;" d="M219.932,471.744c0-2.051,1.465-3.706,3.486-3.706c2.139,0,3.398,1.67,3.398,3.794v0.279h-5.727
				c0.088,1.333,1.025,2.446,2.549,2.446c0.806,0,1.626-0.322,2.183-0.894l0.527,0.718c-0.703,0.703-1.655,1.084-2.812,1.084
				C221.441,475.465,219.932,473.956,219.932,471.744z M223.404,468.947c-1.509,0-2.256,1.274-2.314,2.358h4.643
				C225.718,470.25,225.015,468.947,223.404,468.947z"/>
			<path style="fill:#1D262D;" d="M233.35,475.289v-1.055c-0.527,0.718-1.392,1.23-2.388,1.23c-1.846,0-3.149-1.406-3.149-3.706
				c0-2.256,1.289-3.721,3.149-3.721c0.952,0,1.817,0.469,2.388,1.245v-3.765h1.098v9.77H233.35z M233.35,473.37v-3.208
				c-0.396-0.615-1.245-1.143-2.124-1.143c-1.421,0-2.27,1.172-2.27,2.739c0,1.567,0.849,2.724,2.27,2.724
				C232.105,474.483,232.954,473.986,233.35,473.37z"/>
			<path style="fill:#1D262D;" d="M239.692,475.289v-9.77h1.098v3.765c0.572-0.776,1.421-1.245,2.388-1.245
				c1.845,0,3.149,1.465,3.149,3.721c0,2.299-1.304,3.706-3.149,3.706c-0.996,0-1.86-0.513-2.388-1.23v1.055H239.692z
				 M242.9,474.483c1.436,0,2.285-1.157,2.285-2.724c0-1.568-0.85-2.739-2.285-2.739c-0.864,0-1.728,0.527-2.109,1.143v3.208
				C241.171,473.986,242.036,474.483,242.9,474.483z"/>
			<path style="fill:#1D262D;" d="M247.528,477.061c0.161,0.073,0.425,0.117,0.601,0.117c0.483,0,0.805-0.161,1.055-0.747
				l0.469-1.069l-2.959-7.148h1.187l2.358,5.8l2.344-5.8h1.201l-3.545,8.51c-0.425,1.025-1.143,1.421-2.08,1.435
				c-0.234,0-0.601-0.044-0.805-0.103L247.528,477.061z"/>
		</g>
	</g>
</g>
</svg>
